<svg width="354" height="356" viewBox="0 0 354 356" fill="none" xmlns="http://www.w3.org/2000/svg">
<path d="M354 355.453C335.722 352.584 318.148 350.145 301.284 348.136L307.781 335.118C305.524 334.362 295.756 341.894 295.756 341.894L304.022 304.249C292.744 305.754 287.49 344.155 287.49 344.155L274.711 331.352L281.001 345.845C229.38 340.411 184.84 338.714 147.397 339.107L152.954 327.965C150.697 327.208 140.93 334.74 140.93 334.74L149.195 297.096C137.918 298.6 132.664 337.001 132.664 337.001L119.877 324.206L126.537 339.559C100.889 340.308 75.2932 342.369 49.86 345.742C55.4099 328.424 74.7826 311.781 74.7826 311.781C59.8867 316.422 52.1391 323.991 48.121 330.997C47.307 295.428 52.7755 259.985 64.26 226.321C64.26 226.321 34.1946 294.086 38.7085 339.262L39.2782 347.291C13.1273 351.376 0 355.453 0 355.453H354Z" fill="#77CAB2"/>
<path d="M181.349 267.17C246.211 267.17 298.793 214.589 298.793 149.726C298.793 84.8642 246.211 32.283 181.349 32.283C116.487 32.283 63.9058 84.8642 63.9058 149.726C63.9058 214.589 116.487 267.17 181.349 267.17Z" fill="#B5A9D8"/>
<path d="M133.524 0L55 94.9098L171.214 231.547L248.698 140.803L133.524 0Z" fill="#666388"/>
<path opacity="0.1" d="M133.524 0L55 94.9098L171.214 231.547L248.698 140.803L133.524 0Z" fill="#3F3D56"/>
<path d="M58.3396 95.8908C60.0633 92.7984 62.1995 89.9557 64.6893 87.4362L136.208 15.1345C136.208 15.1345 161.128 10.9917 166.321 23.4202L74.9504 97.9622L58.3396 95.8908Z" fill="#F2F2F2"/>
<path d="M55 94.195L161.279 257.178C161.279 257.178 171.695 264.494 182.118 260.313L291 186.657L175.347 11.1321L71.1522 92.631L55 94.195Z" fill="#666388"/>
<path d="M162.179 36.8876L95.397 84.8708L96.3818 86.2415L163.164 38.2582L162.179 36.8876Z" fill="white"/>
<path d="M94.5152 102.824L93.1074 103.756L180.757 236.27L182.164 235.339L94.5152 102.824Z" fill="white"/>
<path d="M262.325 187.132L191.387 239.321L192.387 240.68L263.325 188.492L262.325 187.132Z" fill="white"/>
<path d="M174.84 39.1579L173.455 40.1221L264.234 170.548L265.62 169.583L174.84 39.1579Z" fill="white"/>
<path d="M153.681 14.2275L67.3906 90.4009L68.0814 91.1834L154.372 15.01L153.681 14.2275Z" fill="white"/>
<path d="M159.069 15.7328L69.501 90.3984L70.1693 91.2001L159.738 16.5345L159.069 15.7328Z" fill="white"/>
</svg>
