<svg width="245" height="258" viewBox="0 0 245 258" fill="none" xmlns="http://www.w3.org/2000/svg">
<g opacity="0.25">
<g clip-path="url(#clip0_3117_25387)">
<path d="M149.468 43.63H95.5766C94.3485 43.6314 93.1711 44.1169 92.3027 44.9798C91.4343 45.8428 90.9458 47.0127 90.9443 48.2331V167.256L90.3267 167.443L77.1063 171.466C76.4797 171.656 75.803 171.591 75.2246 171.285C74.6462 170.98 74.2135 170.459 74.0213 169.836L34.6967 42.1907C34.5053 41.5681 34.5705 40.8954 34.878 40.3205C35.1855 39.7457 35.7101 39.3157 36.3365 39.125L56.7091 32.9261L115.77 14.9615L136.143 8.76252C136.453 8.6677 136.778 8.63457 137.101 8.66501C137.424 8.69546 137.738 8.7889 138.024 8.93997C138.311 9.09104 138.565 9.29678 138.771 9.54541C138.978 9.79405 139.133 10.0807 139.228 10.389L149.28 43.0162L149.468 43.63Z" fill="#F2F2F2"/>
<path d="M161.228 43.0166L149.113 3.69328C148.912 3.03808 148.582 2.42877 148.144 1.90017C147.705 1.37156 147.166 0.934029 146.557 0.612562C145.948 0.291095 145.281 0.0919941 144.595 0.0266449C143.909 -0.0387043 143.216 0.0309786 142.557 0.231705L113.914 8.94396L54.8567 26.9116L26.2141 35.627C24.8835 36.033 23.7694 36.947 23.1163 38.1685C22.4632 39.3899 22.3245 40.819 22.7306 42.142L64.1366 176.533C64.4665 177.601 65.1321 178.536 66.0358 179.2C66.9396 179.864 68.0338 180.224 69.158 180.225C69.6783 180.225 70.1956 180.147 70.6927 179.994L90.3272 174.023L90.9448 173.832V173.191L90.3272 173.378L70.5106 179.408C69.3361 179.764 68.0675 179.642 66.9832 179.07C65.8989 178.498 65.0873 177.521 64.7264 176.355L23.3236 41.9609C23.1449 41.3831 23.0825 40.7758 23.1403 40.174C23.198 39.5721 23.3746 38.9875 23.66 38.4536C23.9454 37.9197 24.334 37.447 24.8036 37.0625C25.2731 36.6781 25.8143 36.3894 26.3963 36.2131L55.0389 27.4978L114.097 9.53317L142.739 0.817847C143.181 0.683986 143.64 0.615734 144.101 0.615306C145.092 0.617516 146.055 0.934814 146.851 1.52073C147.647 2.10664 148.233 2.93037 148.523 3.87128L160.583 43.0166L160.774 43.6303H161.417L161.228 43.0166Z" fill="#3F3D56"/>
<path d="M60.3858 39.2254C59.7905 39.225 59.2111 39.035 58.7325 38.6834C58.2539 38.3317 57.9013 37.8369 57.7264 37.2716L53.7488 24.3607C53.6419 24.0139 53.6048 23.6495 53.6396 23.2885C53.6745 22.9274 53.7805 22.5767 53.9518 22.2564C54.123 21.9361 54.3561 21.6525 54.6376 21.4217C54.9192 21.1909 55.2438 21.0174 55.5928 20.9113L109.925 4.38173C110.63 4.168 111.392 4.24089 112.042 4.58441C112.693 4.92793 113.18 5.514 113.397 6.214L117.374 19.125C117.589 19.8254 117.516 20.582 117.17 21.2287C116.825 21.8754 116.235 22.3594 115.531 22.5746L61.1977 39.1042C60.9346 39.1844 60.661 39.2253 60.3858 39.2254Z" fill="#2E4DA7"/>
<path d="M81.2222 13.7956C84.6333 13.7956 87.3985 11.0477 87.3985 7.658C87.3985 4.26832 84.6333 1.52045 81.2222 1.52045C77.8111 1.52045 75.0459 4.26832 75.0459 7.658C75.0459 11.0477 77.8111 13.7956 81.2222 13.7956Z" fill="#2E4DA7"/>
<path d="M81.2225 11.5445C83.3825 11.5445 85.1336 9.80448 85.1336 7.65803C85.1336 5.51159 83.3825 3.77155 81.2225 3.77155C79.0625 3.77155 77.3115 5.51159 77.3115 7.65803C77.3115 9.80448 79.0625 11.5445 81.2225 11.5445Z" fill="white"/>
<path d="M208.603 178.656H104.224C103.528 178.655 102.86 178.38 102.368 177.891C101.876 177.402 101.599 176.739 101.599 176.048V51.7622C101.599 51.0706 101.876 50.4076 102.368 49.9186C102.86 49.4296 103.528 49.1545 104.224 49.1537H208.603C209.299 49.1545 209.966 49.4296 210.458 49.9186C210.95 50.4076 211.227 51.0706 211.228 51.7622V176.048C211.227 176.739 210.95 177.402 210.458 177.891C209.966 178.38 209.299 178.655 208.603 178.656Z" fill="#E6E6E6"/>
<path d="M160.583 43.0162H95.577C94.1853 43.0182 92.8511 43.5685 91.867 44.5464C90.8829 45.5243 90.3291 46.8501 90.3271 48.2332V173.378L90.9448 173.191V48.2332C90.9463 47.0128 91.4348 45.8428 92.3032 44.9799C93.1716 44.1169 94.3489 43.6315 95.577 43.63H160.774L160.583 43.0162ZM217.25 43.0162H95.577C94.1853 43.0182 92.8511 43.5685 91.867 44.5464C90.8829 45.5243 90.3291 46.8501 90.3271 48.2332V188.783C90.3291 190.166 90.8829 191.492 91.867 192.47C92.8511 193.448 94.1853 193.998 95.577 194H217.25C218.642 193.998 219.976 193.448 220.96 192.47C221.944 191.492 222.498 190.166 222.5 188.783V48.2332C222.498 46.8501 221.944 45.5243 220.96 44.5464C219.976 43.5685 218.642 43.0182 217.25 43.0162ZM221.882 188.783C221.881 190.003 221.392 191.173 220.524 192.036C219.656 192.899 218.478 193.385 217.25 193.386H95.577C94.3489 193.385 93.1716 192.899 92.3032 192.036C91.4348 191.173 90.9463 190.003 90.9448 188.783V48.2332C90.9463 47.0128 91.4348 45.8428 92.3032 44.9799C93.1716 44.1169 94.3489 43.6315 95.577 43.63H217.25C218.478 43.6315 219.656 44.1169 220.524 44.9799C221.392 45.8428 221.881 47.0128 221.882 48.2332V188.783Z" fill="#3F3D56"/>
<path d="M184.825 56.5188H128.003C127.266 56.518 126.56 56.2268 126.039 55.709C125.518 55.1912 125.224 54.4892 125.224 53.7569V40.2543C125.224 39.5221 125.518 38.8201 126.039 38.3023C126.56 37.7845 127.266 37.4933 128.003 37.4924H184.825C185.562 37.4933 186.268 37.7845 186.789 38.3023C187.31 38.8201 187.603 39.5221 187.604 40.2543V53.7569C187.603 54.4892 187.31 55.1912 186.789 55.709C186.268 56.2268 185.562 56.518 184.825 56.5188Z" fill="#2E4DA7"/>
<path d="M156.414 38.413C159.825 38.413 162.59 35.6652 162.59 32.2755C162.59 28.8858 159.825 26.1379 156.414 26.1379C153.003 26.1379 150.237 28.8858 150.237 32.2755C150.237 35.6652 153.003 38.413 156.414 38.413Z" fill="#2E4DA7"/>
<path d="M156.413 36.0139C158.491 36.0139 160.175 34.3401 160.175 32.2755C160.175 30.2109 158.491 28.5372 156.413 28.5372C154.336 28.5372 152.651 30.2109 152.651 32.2755C152.651 34.3401 154.336 36.0139 156.413 36.0139Z" fill="white"/>
</g>
<path d="M0.571965 222.818L4.26586 229.003V233H5.79711V229.003L9.491 222.818H7.74597L5.08617 227.447H4.9768L2.31699 222.818H0.571965ZM12.8946 233.154C15.0473 233.154 16.4543 231.578 16.4543 229.217C16.4543 226.84 15.0473 225.264 12.8946 225.264C10.7419 225.264 9.33496 226.84 9.33496 229.217C9.33496 231.578 10.7419 233.154 12.8946 233.154ZM12.8996 231.906C11.4926 231.906 10.8364 230.678 10.8364 229.212C10.8364 227.75 11.4926 226.507 12.8996 226.507C14.2966 226.507 14.9529 227.75 14.9529 229.212C14.9529 230.678 14.2966 231.906 12.8996 231.906ZM23.0509 229.833C23.0559 231.131 22.0914 231.747 21.2562 231.747C20.3364 231.747 19.7001 231.081 19.7001 230.042V225.364H18.2135V230.221C18.2135 232.115 19.2526 233.099 20.7192 233.099C21.8677 233.099 22.6482 232.493 23.0012 231.678H23.0807V233H24.5424V225.364H23.0509V229.833ZM37.4547 226.035H39.0307C38.6877 224.051 36.9924 222.679 34.7949 222.679C32.16 222.679 30.236 224.663 30.236 227.914C30.236 231.136 32.1053 233.139 34.8645 233.139C37.3354 233.139 39.1003 231.518 39.1003 228.948V227.79H35.0982V229.058H37.6138C37.579 230.698 36.4952 231.737 34.8645 231.737C33.0698 231.737 31.7623 230.38 31.7623 227.904C31.7623 225.438 33.0797 224.081 34.8049 224.081C36.1572 224.081 37.0719 224.827 37.4547 226.035ZM44.2477 233.154C46.4004 233.154 47.8074 231.578 47.8074 229.217C47.8074 226.84 46.4004 225.264 44.2477 225.264C42.095 225.264 40.6881 226.84 40.6881 229.217C40.6881 231.578 42.095 233.154 44.2477 233.154ZM44.2527 231.906C42.8458 231.906 42.1895 230.678 42.1895 229.212C42.1895 227.75 42.8458 226.507 44.2527 226.507C45.6497 226.507 46.306 227.75 46.306 229.212C46.306 230.678 45.6497 231.906 44.2527 231.906ZM53.1313 225.364H51.5653V223.534H50.0787V225.364H48.9601V226.557H50.0787V231.066C50.0738 232.453 51.1327 233.124 52.306 233.099C52.7783 233.094 53.0965 233.005 53.2705 232.94L53.002 231.712C52.9026 231.732 52.7187 231.777 52.48 231.777C51.9978 231.777 51.5653 231.618 51.5653 230.758V226.557H53.1313V225.364ZM67.0181 222.818H65.4968V230.295H65.4023L60.2219 222.818H58.8001V233H60.3363V225.533H60.4307L65.6062 233H67.0181V222.818ZM72.4563 233.154C74.609 233.154 76.016 231.578 76.016 229.217C76.016 226.84 74.609 225.264 72.4563 225.264C70.3036 225.264 68.8967 226.84 68.8967 229.217C68.8967 231.578 70.3036 233.154 72.4563 233.154ZM72.4613 231.906C71.0544 231.906 70.3981 230.678 70.3981 229.212C70.3981 227.75 71.0544 226.507 72.4613 226.507C73.8583 226.507 74.5146 227.75 74.5146 229.212C74.5146 230.678 73.8583 231.906 72.4613 231.906ZM82.5597 233L83.4944 230.305H87.4717L88.4014 233H90.032L86.368 222.818H84.5931L80.9291 233H82.5597ZM83.9419 229.013L85.4433 224.668H85.5228L87.0242 229.013H83.9419ZM91.4831 235.864H92.9696V231.812H93.0591C93.3275 232.299 93.8744 233.149 95.2665 233.149C97.1159 233.149 98.4582 231.668 98.4582 229.197C98.4582 226.721 97.096 225.264 95.2515 225.264C93.8346 225.264 93.3226 226.129 93.0591 226.602H92.9348V225.364H91.4831V235.864ZM92.9398 229.182C92.9398 227.586 93.6358 226.527 94.9334 226.527C96.2807 226.527 96.9568 227.665 96.9568 229.182C96.9568 230.713 96.2608 231.881 94.9334 231.881C93.6557 231.881 92.9398 230.788 92.9398 229.182ZM100.224 235.864H101.71V231.812H101.8C102.068 232.299 102.615 233.149 104.007 233.149C105.857 233.149 107.199 231.668 107.199 229.197C107.199 226.721 105.837 225.264 103.992 225.264C102.575 225.264 102.063 226.129 101.8 226.602H101.675V225.364H100.224V235.864ZM101.68 229.182C101.68 227.586 102.376 226.527 103.674 226.527C105.021 226.527 105.697 227.665 105.697 229.182C105.697 230.713 105.001 231.881 103.674 231.881C102.396 231.881 101.68 230.788 101.68 229.182ZM112.181 233.154C114.334 233.154 115.741 231.578 115.741 229.217C115.741 226.84 114.334 225.264 112.181 225.264C110.028 225.264 108.621 226.84 108.621 229.217C108.621 231.578 110.028 233.154 112.181 233.154ZM112.186 231.906C110.779 231.906 110.123 230.678 110.123 229.212C110.123 227.75 110.779 226.507 112.186 226.507C113.583 226.507 114.239 227.75 114.239 229.212C114.239 230.678 113.583 231.906 112.186 231.906ZM117.5 233H118.986V225.364H117.5V233ZM118.251 224.185C118.763 224.185 119.19 223.788 119.19 223.3C119.19 222.813 118.763 222.411 118.251 222.411C117.734 222.411 117.311 222.813 117.311 223.3C117.311 223.788 117.734 224.185 118.251 224.185ZM122.573 228.466C122.573 227.248 123.318 226.552 124.353 226.552C125.362 226.552 125.973 227.213 125.973 228.322V233H127.46V228.143C127.46 226.254 126.421 225.264 124.86 225.264C123.711 225.264 122.96 225.796 122.608 226.607H122.513V225.364H121.086V233H122.573V228.466ZM133.118 225.364H131.552V223.534H130.065V225.364H128.947V226.557H130.065V231.066C130.06 232.453 131.119 233.124 132.293 233.099C132.765 233.094 133.083 233.005 133.257 232.94L132.989 231.712C132.889 231.732 132.705 231.777 132.467 231.777C131.985 231.777 131.552 231.618 131.552 230.758V226.557H133.118V225.364ZM134.862 233H136.349V228.292C136.349 227.263 137.07 226.547 137.915 226.547C138.74 226.547 139.312 227.094 139.312 227.924V233H140.793V228.133C140.793 227.213 141.355 226.547 142.325 226.547C143.11 226.547 143.757 226.984 143.757 228.018V233H145.243V227.879C145.243 226.134 144.269 225.264 142.887 225.264C141.788 225.264 140.963 225.791 140.595 226.607H140.515C140.182 225.771 139.481 225.264 138.462 225.264C137.453 225.264 136.702 225.766 136.384 226.607H136.289V225.364H134.862V233ZM150.627 233.154C152.292 233.154 153.47 232.334 153.808 231.091L152.401 230.837C152.133 231.558 151.487 231.926 150.642 231.926C149.369 231.926 148.514 231.101 148.474 229.629H153.903V229.102C153.903 226.343 152.252 225.264 150.522 225.264C148.394 225.264 146.992 226.885 146.992 229.232C146.992 231.603 148.374 233.154 150.627 233.154ZM148.479 228.516C148.539 227.432 149.324 226.492 150.532 226.492C151.686 226.492 152.441 227.347 152.446 228.516H148.479ZM157.139 228.466C157.139 227.248 157.884 226.552 158.919 226.552C159.928 226.552 160.539 227.213 160.539 228.322V233H162.026V228.143C162.026 226.254 160.987 225.264 159.426 225.264C158.277 225.264 157.527 225.796 157.174 226.607H157.079V225.364H155.652V233H157.139V228.466ZM167.684 225.364H166.118V223.534H164.631V225.364H163.513V226.557H164.631V231.066C164.627 232.453 165.685 233.124 166.859 233.099C167.331 233.094 167.649 233.005 167.823 232.94L167.555 231.712C167.455 231.732 167.271 231.777 167.033 231.777C166.551 231.777 166.118 231.618 166.118 230.758V226.557H167.684V225.364ZM173.353 233H174.889V229.147H176.977C177.012 229.147 177.042 229.147 177.077 229.147L179.145 233H180.895L178.638 228.879C179.885 228.416 180.507 227.377 180.507 226.01C180.507 224.136 179.344 222.818 176.982 222.818H173.353V233ZM174.889 227.825V224.136H176.818C178.334 224.136 178.961 224.857 178.961 226.01C178.961 227.158 178.334 227.825 176.838 227.825H174.889ZM182.357 233H183.843V225.364H182.357V233ZM183.108 224.185C183.62 224.185 184.047 223.788 184.047 223.3C184.047 222.813 183.62 222.411 183.108 222.411C182.591 222.411 182.168 222.813 182.168 223.3C182.168 223.788 182.591 224.185 183.108 224.185ZM189.145 236.023C191.089 236.023 192.59 235.133 192.59 233.169V225.364H191.134V226.602H191.024C190.761 226.129 190.234 225.264 188.812 225.264C186.967 225.264 185.61 226.721 185.61 229.152C185.61 231.588 186.997 232.886 188.802 232.886C190.204 232.886 190.746 232.095 191.014 231.608H191.109V233.109C191.109 234.308 190.288 234.825 189.16 234.825C187.922 234.825 187.44 234.203 187.176 233.766L185.898 234.293C186.301 235.227 187.32 236.023 189.145 236.023ZM189.13 231.653C187.803 231.653 187.112 230.634 187.112 229.132C187.112 227.665 187.788 226.527 189.13 226.527C190.428 226.527 191.124 227.586 191.124 229.132C191.124 230.708 190.413 231.653 189.13 231.653ZM196.17 228.466C196.17 227.248 196.941 226.552 198 226.552C199.024 226.552 199.636 227.203 199.636 228.322V233H201.122V228.143C201.122 226.239 200.078 225.264 198.507 225.264C197.319 225.264 196.603 225.781 196.245 226.607H196.15V222.818H194.684V233H196.17V228.466ZM206.77 225.364H205.204V223.534H203.718V225.364H202.599V226.557H203.718V231.066C203.713 232.453 204.772 233.124 205.945 233.099C206.417 233.094 206.736 233.005 206.91 232.94L206.641 231.712C206.542 231.732 206.358 231.777 206.119 231.777C205.637 231.777 205.204 231.618 205.204 230.758V226.557H206.77V225.364ZM220.657 222.818H219.136V230.295H219.041L213.861 222.818H212.439V233H213.975V225.533H214.07L219.245 233H220.657V222.818ZM226.095 233.154C228.248 233.154 229.655 231.578 229.655 229.217C229.655 226.84 228.248 225.264 226.095 225.264C223.943 225.264 222.536 226.84 222.536 229.217C222.536 231.578 223.943 233.154 226.095 233.154ZM226.1 231.906C224.693 231.906 224.037 230.678 224.037 229.212C224.037 227.75 224.693 226.507 226.1 226.507C227.497 226.507 228.154 227.75 228.154 229.212C228.154 230.678 227.497 231.906 226.1 231.906ZM232.837 233H234.349L235.9 227.487H236.014L237.565 233H239.082L241.324 225.364H239.788L238.301 230.947H238.227L236.735 225.364H235.199L233.698 230.972H233.623L232.127 225.364H230.59L232.837 233ZM242.775 233.094C243.317 233.094 243.769 232.652 243.769 232.1C243.769 231.558 243.317 231.111 242.775 231.111C242.228 231.111 241.781 231.558 241.781 232.1C241.781 232.652 242.228 233.094 242.775 233.094ZM38.565 245.493H40.0466C40.0018 243.862 38.5601 242.679 36.4919 242.679C34.4486 242.679 32.8825 243.847 32.8825 245.602C32.8825 247.019 33.8967 247.849 35.5324 248.292L36.7355 248.62C37.8243 248.908 38.6645 249.266 38.6645 250.171C38.6645 251.165 37.7149 251.822 36.4074 251.822C35.2241 251.822 34.2398 251.295 34.1503 250.186H32.6091C32.7085 252.031 34.1354 253.169 36.4173 253.169C38.8086 253.169 40.1858 251.911 40.1858 250.186C40.1858 248.352 38.5501 247.641 37.2575 247.322L36.2632 247.064C35.4677 246.86 34.4088 246.487 34.4138 245.513C34.4138 244.648 35.2042 244.006 36.4571 244.006C37.6254 244.006 38.4557 244.553 38.565 245.493ZM42.0022 253H43.4887V245.364H42.0022V253ZM42.7529 244.185C43.265 244.185 43.6926 243.788 43.6926 243.3C43.6926 242.813 43.265 242.411 42.7529 242.411C42.2359 242.411 41.8133 242.813 41.8133 243.3C41.8133 243.788 42.2359 244.185 42.7529 244.185ZM49.1532 245.364H47.5871V243.534H46.1006V245.364H44.982V246.557H46.1006V251.066C46.0957 252.453 47.1546 253.124 48.3279 253.099C48.8002 253.094 49.1184 253.005 49.2924 252.94L49.0239 251.712C48.9245 251.732 48.7405 251.777 48.5019 251.777C48.0197 251.777 47.5871 251.618 47.5871 250.758V246.557H49.1532V245.364ZM57.5613 253.149C58.9533 253.149 59.5002 252.299 59.7687 251.812H59.893V253H61.3447V242.818H59.8582V246.602H59.7687C59.5002 246.129 58.9931 245.264 57.5712 245.264C55.7268 245.264 54.3695 246.721 54.3695 249.197C54.3695 251.668 55.7069 253.149 57.5613 253.149ZM57.8894 251.881C56.562 251.881 55.8709 250.713 55.8709 249.182C55.8709 247.665 56.5471 246.527 57.8894 246.527C59.187 246.527 59.883 247.586 59.883 249.182C59.883 250.788 59.1721 251.881 57.8894 251.881ZM66.7829 253.154C68.9356 253.154 70.3426 251.578 70.3426 249.217C70.3426 246.84 68.9356 245.264 66.7829 245.264C64.6302 245.264 63.2232 246.84 63.2232 249.217C63.2232 251.578 64.6302 253.154 66.7829 253.154ZM66.7879 251.906C65.3809 251.906 64.7247 250.678 64.7247 249.212C64.7247 247.75 65.3809 246.507 66.7879 246.507C68.1849 246.507 68.8411 247.75 68.8411 249.212C68.8411 250.678 68.1849 251.906 66.7879 251.906ZM73.5249 253H75.0363L76.5874 247.487H76.7018L78.2529 253H79.7693L82.0115 245.364H80.4752L78.9887 250.947H78.9142L77.4227 245.364H75.8865L74.385 250.972H74.3105L72.814 245.364H71.2778L73.5249 253ZM85.0087 248.466C85.0087 247.248 85.7544 246.552 86.7885 246.552C87.7977 246.552 88.4092 247.213 88.4092 248.322V253H89.8957V248.143C89.8957 246.254 88.8567 245.264 87.2956 245.264C86.1471 245.264 85.3964 245.796 85.0435 246.607H84.949V245.364H83.5221V253H85.0087V248.466ZM98.0167 253.169C99.2795 253.169 99.9904 252.528 100.274 251.956H100.333V253H101.785V247.929C101.785 245.707 100.035 245.264 98.8221 245.264C97.44 245.264 96.1673 245.821 95.6701 247.213L97.0671 247.531C97.2859 246.989 97.8427 246.467 98.842 246.467C99.8015 246.467 100.294 246.969 100.294 247.835V247.869C100.294 248.411 99.7369 248.401 98.3647 248.56C96.918 248.729 95.4365 249.107 95.4365 250.842C95.4365 252.344 96.565 253.169 98.0167 253.169ZM98.3399 251.976C97.4997 251.976 96.8931 251.598 96.8931 250.862C96.8931 250.067 97.5991 249.783 98.4592 249.669C98.9414 249.604 100.085 249.475 100.299 249.261V250.246C100.299 251.151 99.5778 251.976 98.3399 251.976ZM105.352 248.466C105.352 247.248 106.097 246.552 107.131 246.552C108.141 246.552 108.752 247.213 108.752 248.322V253H110.239V248.143C110.239 246.254 109.2 245.264 107.639 245.264C106.49 245.264 105.739 245.796 105.386 246.607H105.292V245.364H103.865V253H105.352V248.466ZM115.191 253.149C116.583 253.149 117.13 252.299 117.398 251.812H117.523V253H118.974V242.818H117.488V246.602H117.398C117.13 246.129 116.623 245.264 115.201 245.264C113.356 245.264 111.999 246.721 111.999 249.197C111.999 251.668 113.337 253.149 115.191 253.149ZM115.519 251.881C114.192 251.881 113.501 250.713 113.501 249.182C113.501 247.665 114.177 246.527 115.519 246.527C116.817 246.527 117.513 247.586 117.513 249.182C117.513 250.788 116.802 251.881 115.519 251.881ZM125.001 253H126.488V248.337C126.488 247.337 127.258 246.616 128.312 246.616C128.62 246.616 128.968 246.671 129.088 246.706V245.284C128.939 245.264 128.645 245.249 128.456 245.249C127.561 245.249 126.796 245.756 126.517 246.577H126.438V245.364H125.001V253ZM133.492 253.154C135.157 253.154 136.336 252.334 136.674 251.091L135.267 250.837C134.998 251.558 134.352 251.926 133.507 251.926C132.234 251.926 131.379 251.101 131.339 249.629H136.768V249.102C136.768 246.343 135.118 245.264 133.387 245.264C131.26 245.264 129.858 246.885 129.858 249.232C129.858 251.603 131.24 253.154 133.492 253.154ZM131.344 248.516C131.404 247.432 132.189 246.492 133.397 246.492C134.551 246.492 135.306 247.347 135.311 248.516H131.344ZM140.004 242.818H138.517V253H140.004V242.818ZM144.326 253.169C145.589 253.169 146.3 252.528 146.583 251.956H146.643V253H148.095V247.929C148.095 245.707 146.345 245.264 145.131 245.264C143.749 245.264 142.477 245.821 141.979 247.213L143.377 247.531C143.595 246.989 144.152 246.467 145.151 246.467C146.111 246.467 146.603 246.969 146.603 247.835V247.869C146.603 248.411 146.046 248.401 144.674 248.56C143.227 248.729 141.746 249.107 141.746 250.842C141.746 252.344 142.874 253.169 144.326 253.169ZM144.649 251.976C143.809 251.976 143.203 251.598 143.203 250.862C143.203 250.067 143.908 249.783 144.769 249.669C145.251 249.604 146.394 249.475 146.608 249.261V250.246C146.608 251.151 145.887 251.976 144.649 251.976ZM151.348 245.364H149.717L152.064 249.182L149.687 253H151.318L153.033 250.146L154.753 253H156.379L153.978 249.182L156.359 245.364H154.733L153.033 248.337L151.348 245.364ZM165.425 245.364H163.779V244.678C163.779 244.001 164.058 243.634 164.783 243.634C165.092 243.634 165.31 243.703 165.45 243.748L165.798 242.545C165.589 242.465 165.156 242.341 164.555 242.341C163.347 242.341 162.288 243.047 162.288 244.479V245.364H161.109V246.557H162.288V253H163.779V246.557H165.425V245.364ZM169.974 253.154C172.127 253.154 173.534 251.578 173.534 249.217C173.534 246.84 172.127 245.264 169.974 245.264C167.822 245.264 166.415 246.84 166.415 249.217C166.415 251.578 167.822 253.154 169.974 253.154ZM169.979 251.906C168.572 251.906 167.916 250.678 167.916 249.212C167.916 247.75 168.572 246.507 169.979 246.507C171.376 246.507 172.033 247.75 172.033 249.212C172.033 250.678 171.376 251.906 169.979 251.906ZM175.293 253H176.78V248.337C176.78 247.337 177.55 246.616 178.604 246.616C178.913 246.616 179.261 246.671 179.38 246.706V245.284C179.231 245.264 178.937 245.249 178.748 245.249C177.854 245.249 177.088 245.756 176.81 246.577H176.73V245.364H175.293V253ZM186.794 253.169C188.056 253.169 188.767 252.528 189.051 251.956H189.11V253H190.562V247.929C190.562 245.707 188.812 245.264 187.599 245.264C186.217 245.264 184.944 245.821 184.447 247.213L185.844 247.531C186.063 246.989 186.62 246.467 187.619 246.467C188.578 246.467 189.071 246.969 189.071 247.835V247.869C189.071 248.411 188.514 248.401 187.142 248.56C185.695 248.729 184.213 249.107 184.213 250.842C184.213 252.344 185.342 253.169 186.794 253.169ZM187.117 251.976C186.277 251.976 185.67 251.598 185.67 250.862C185.67 250.067 186.376 249.783 187.236 249.669C187.718 249.604 188.862 249.475 189.076 249.261V250.246C189.076 251.151 188.355 251.976 187.117 251.976ZM196.566 253H198.018V251.812H198.142C198.411 252.299 198.958 253.149 200.35 253.149C202.199 253.149 203.542 251.668 203.542 249.197C203.542 246.721 202.179 245.264 200.335 245.264C198.918 245.264 198.406 246.129 198.142 246.602H198.053V242.818H196.566V253ZM198.023 249.182C198.023 247.586 198.719 246.527 200.017 246.527C201.364 246.527 202.04 247.665 202.04 249.182C202.04 250.713 201.344 251.881 200.017 251.881C198.739 251.881 198.023 250.788 198.023 249.182ZM205.311 253H206.797V245.364H205.311V253ZM206.062 244.185C206.574 244.185 207.001 243.788 207.001 243.3C207.001 242.813 206.574 242.411 206.062 242.411C205.544 242.411 205.122 242.813 205.122 243.3C205.122 243.788 205.544 244.185 206.062 244.185ZM212.462 245.364H210.896V243.534H209.409V245.364H208.291V246.557H209.409V251.066C209.404 252.453 210.463 253.124 211.636 253.099C212.109 253.094 212.427 253.005 212.601 252.94L212.333 251.712C212.233 251.732 212.049 251.777 211.81 251.777C211.328 251.777 210.896 251.618 210.896 250.758V246.557H212.462V245.364Z" fill="#232127"/>
</g>
<defs>
<clipPath id="clip0_3117_25387">
<rect width="200" height="194" fill="white" transform="translate(22.5)"/>
</clipPath>
</defs>
</svg>
