<svg width="264" height="169" viewBox="0 0 264 169" fill="none" xmlns="http://www.w3.org/2000/svg">
<g clip-path="url(#clip0_304_37581)">
<path d="M264 169C250.397 167.227 237.315 165.699 224.753 164.415L229.72 157.263C228.046 156.823 220.688 160.9 220.688 160.9L227.209 140.108C218.787 140.83 214.501 162.07 214.501 162.07L205.093 154.844L209.647 162.943C171.202 159.412 137.999 158.025 110.071 157.865L114.323 151.744C112.648 151.304 105.291 155.381 105.291 155.381L111.811 134.588C103.389 135.31 99.1038 156.55 99.1038 156.55L89.6957 149.324L94.5191 157.903C71.1062 158.155 52.0132 159.267 37.2762 160.563C41.5767 151.018 56.1822 141.983 56.1822 141.983C45.0288 144.408 39.1778 148.525 36.1202 152.372C35.8865 140.564 37.4588 118.679 49.1402 94.49C49.1402 94.49 26.0814 131.764 29.0188 156.86L29.3699 161.316C9.82597 163.32 0 165.448 0 165.448L264 169Z" fill="#3F3D56"/>
<path d="M140.378 6.76898V157.392C140.376 159.186 139.574 160.907 138.148 162.175C136.721 163.443 134.788 164.156 132.771 164.156H64.0479C63.0488 164.158 62.0592 163.984 61.1358 163.645C60.2124 163.305 59.3733 162.807 58.6666 162.179C57.9599 161.551 57.3994 160.804 57.0175 159.983C56.6355 159.161 56.4394 158.281 56.4404 157.392V6.76898C56.4403 5.88004 56.6371 4.9998 57.0193 4.17851C57.4016 3.35723 57.962 2.61099 58.6684 1.98242C59.3749 1.35384 60.2135 0.855247 61.1365 0.515101C62.0596 0.174955 63.0488 -7.65932e-05 64.0479 3.17575e-07H74.3322V1.17347C74.332 2.6516 74.9916 4.06928 76.1661 5.11469C77.3405 6.1601 78.9335 6.74763 80.5947 6.74806H115.548C116.885 6.7506 118.187 6.36921 119.261 5.66057C119.479 5.52004 119.684 5.3663 119.878 5.20047C120.49 4.68066 120.976 4.05569 121.309 3.36346C121.641 2.67123 121.811 1.92617 121.81 1.17347V3.17575e-07H132.771C133.77 -0.000272029 134.759 0.174627 135.683 0.514704C136.606 0.85478 137.444 1.35337 138.151 1.98198C138.857 2.61059 139.418 3.35691 139.8 4.17828C140.182 4.99965 140.379 5.87999 140.378 6.76898Z" fill="#3F3D56"/>
<path d="M75.5849 26.7227C76.5945 26.7227 77.413 25.9945 77.413 25.0961C77.413 24.1978 76.5945 23.4695 75.5849 23.4695C74.5753 23.4695 73.7568 24.1978 73.7568 25.0961C73.7568 25.9945 74.5753 26.7227 75.5849 26.7227Z" fill="#F2F2F2"/>
<path d="M119.877 5.20053C119.684 5.36636 119.478 5.5201 119.261 5.66063C121.5 9.16637 124.533 12.2199 128.168 14.6276C131.803 17.0353 135.961 18.7445 140.378 19.6471V18.9221C136.08 18.02 132.04 16.3349 128.511 13.9732C124.983 11.6114 122.043 8.62434 119.877 5.20053Z" fill="#2E4DA7"/>
<path d="M104.258 6.74805H103.401C106.442 13.623 111.458 19.6674 117.947 24.2773C124.435 28.8871 132.17 31.901 140.378 33.0176V32.2973C132.384 31.1926 124.85 28.2563 118.517 23.7768C112.185 19.2973 107.27 13.4288 104.258 6.74805Z" fill="#2E4DA7"/>
<path d="M88.4786 6.74805H87.6533C94.5557 28.0658 115.383 43.9344 140.378 46.5114V45.8027C115.816 43.2373 95.347 27.6708 88.4786 6.74805Z" fill="#2E4DA7"/>
<path d="M69.5788 37.1381H69.103V36.7147H69.0103V37.1381H68.5342V37.2208H69.0103V37.6442H69.103V37.2208H69.5788V37.1381Z" fill="#F2F2F2"/>
<path d="M101.701 15.9923H101.225V15.5689H101.132V15.9923H100.656V16.075H101.132V16.4984H101.225V16.075H101.701V15.9923Z" fill="#F2F2F2"/>
<path d="M74.279 53.8688H73.8032V53.4454H73.7105V53.8688H73.2344V53.9515H73.7105V54.3749H73.8032V53.9515H74.279V53.8688Z" fill="#F2F2F2"/>
<path d="M96.2165 41.5531H95.7407V41.1298H95.648V41.5531H95.1719V41.6359H95.648V42.0592H95.7407V41.6359H96.2165V41.5531Z" fill="#F2F2F2"/>
<path d="M127.555 49.2214H127.08V48.798H126.987V49.2214H126.511V49.3041H126.987V49.7275H127.08V49.3041H127.555V49.2214Z" fill="#F2F2F2"/>
<path d="M122.071 29.9759C122.648 29.9759 123.116 29.5597 123.116 29.0464C123.116 28.533 122.648 28.1169 122.071 28.1169C121.494 28.1169 121.026 28.533 121.026 29.0464C121.026 29.5597 121.494 29.9759 122.071 29.9759Z" fill="#FF6584"/>
<path d="M84.6475 50.8428L84.0547 50.9241C84.2401 51.9791 84.3864 53.0573 84.4934 54.1239L85.0915 54.0774C84.9844 52.9969 84.8355 51.9094 84.6475 50.8428Z" fill="#E6E6E6"/>
<path d="M83.0257 44.4898L82.4512 44.6455C82.7985 45.6679 83.1093 46.7159 83.3731 47.7593L83.9607 47.6408C83.6917 46.5858 83.3757 45.5262 83.0257 44.4898Z" fill="#E6E6E6"/>
<path d="M80.4374 38.3971L79.8916 38.6202C80.393 39.5938 80.8631 40.593 81.2888 41.5922L81.8503 41.404C81.4194 40.3931 80.9467 39.38 80.4374 38.3971Z" fill="#E6E6E6"/>
<path d="M76.9383 32.6854L76.4316 32.9712C77.0767 33.8728 77.6956 34.8069 78.2702 35.7434L78.7977 35.4878C78.2179 34.5397 77.5912 33.5963 76.9383 32.6854Z" fill="#E6E6E6"/>
<path d="M72.5869 27.45L72.1299 27.7963C72.9081 28.6096 73.6655 29.46 74.3811 30.3198L74.8616 30.0015C74.1408 29.1324 73.3756 28.2726 72.5869 27.45Z" fill="#E6E6E6"/>
<path d="M67.4738 22.7887L67.0742 23.186C67.9726 23.8994 68.8527 24.65 69.691 25.4145L70.1219 25.0403C69.2732 24.2665 68.3826 23.509 67.4738 22.7887Z" fill="#E6E6E6"/>
<path d="M61.6972 18.7872L61.3604 19.2287C62.358 19.8259 63.3451 20.4626 64.2931 21.1202L64.664 20.6996C63.7029 20.035 62.7053 19.3914 61.6972 18.7872Z" fill="#E6E6E6"/>
<path d="M56.4404 16.0081V16.6123C57.0646 16.9027 57.6835 17.2071 58.2894 17.5185L58.5897 17.0561C57.8846 16.6936 57.1682 16.3442 56.4404 16.0081Z" fill="#E6E6E6"/>
<path d="M84.5117 101.036C84.6091 100.516 84.6983 99.9856 84.7767 99.459L85.372 99.5293C85.2927 100.062 85.2025 100.598 85.1041 101.124L84.5117 101.036Z" fill="#E6E6E6"/>
<path d="M82.8379 107.305L83.4118 107.464C83.7718 106.431 84.0977 105.374 84.38 104.32L83.7952 104.197C83.5155 105.239 83.1953 106.284 82.8379 107.305Z" fill="#E6E6E6"/>
<path d="M80.2158 113.307L80.7607 113.535C81.2787 112.557 81.7636 111.549 82.2034 110.541L81.6431 110.346C81.2084 111.344 80.7287 112.341 80.2158 113.307Z" fill="#E6E6E6"/>
<path d="M76.6875 118.939L77.1911 119.23C77.8552 118.323 78.4924 117.384 79.0856 116.439L78.5619 116.178C77.9765 117.112 77.3444 118.041 76.6875 118.939Z" fill="#E6E6E6"/>
<path d="M72.3213 124.083L72.7764 124.434C73.5754 123.614 74.3499 122.761 75.084 121.899L74.6031 121.579C73.8793 122.431 73.1125 123.274 72.3213 124.083Z" fill="#E6E6E6"/>
<path d="M67.209 128.648L67.6044 129.05C68.5227 128.337 69.4207 127.585 70.2788 126.821L69.854 126.442C69.0057 127.199 68.1154 127.94 67.209 128.648Z" fill="#E6E6E6"/>
<path d="M61.4502 132.55L61.7819 132.997C62.7959 132.401 63.8029 131.766 64.769 131.112L64.406 130.685C63.4491 131.334 62.4544 131.962 61.4502 132.55Z" fill="#E6E6E6"/>
<path d="M58.6576 134.694C57.9316 135.059 57.1899 135.412 56.4404 135.747V135.147C57.0881 134.854 57.7305 134.545 58.3599 134.232L58.6576 134.694Z" fill="#E6E6E6"/>
<path d="M84.6875 57.4203L85.2878 57.4106C85.2988 57.95 85.2996 58.4922 85.2903 59.0224L84.69 59.014C84.6991 58.4899 84.6984 57.9537 84.6875 57.4203Z" fill="#E6E6E6"/>
<path d="M59.0771 70.0906H120.504C125.075 70.0906 129.459 71.7064 132.691 74.5826C135.924 77.4587 137.74 81.3596 137.74 85.4271V87.4572H76.3134C71.7421 87.4572 67.358 85.8414 64.1255 82.9652C60.8931 80.0891 59.0771 76.1882 59.0771 72.1207V70.0906Z" fill="white"/>
<path d="M99.8443 163.943C99.7843 163.856 98.3712 161.756 97.8813 157.397C97.4319 153.397 97.7209 146.655 101.65 137.25C109.095 119.434 99.9348 105.059 99.8412 104.916L100.293 104.683C100.317 104.719 102.681 108.384 104.077 114.22C105.922 121.958 105.25 130.003 102.14 137.413C94.7084 155.198 100.233 163.618 100.29 163.701L99.8443 163.943Z" fill="#F2F2F2"/>
<path d="M96.9331 103.87C98.8081 103.87 100.328 102.518 100.328 100.849C100.328 99.1808 98.8081 97.8283 96.9331 97.8283C95.0581 97.8283 93.5381 99.1808 93.5381 100.849C93.5381 102.518 95.0581 103.87 96.9331 103.87Z" fill="#2E4DA7"/>
<path d="M107.64 115.024C109.515 115.024 111.035 113.671 111.035 112.003C111.035 110.335 109.515 108.982 107.64 108.982C105.765 108.982 104.245 110.335 104.245 112.003C104.245 113.671 105.765 115.024 107.64 115.024Z" fill="#F2F2F2"/>
<path d="M100.328 122.46C102.203 122.46 103.723 121.107 103.723 119.439C103.723 117.77 102.203 116.418 100.328 116.418C98.4526 116.418 96.9326 117.77 96.9326 119.439C96.9326 121.107 98.4526 122.46 100.328 122.46Z" fill="#2E4DA7"/>
<path d="M109.208 128.734C111.083 128.734 112.603 127.381 112.603 125.713C112.603 124.045 111.083 122.692 109.208 122.692C107.333 122.692 105.812 124.045 105.812 125.713C105.812 127.381 107.333 128.734 109.208 128.734Z" fill="#2E4DA7"/>
<path d="M97.7163 138.493C99.5913 138.493 101.111 137.141 101.111 135.473C101.111 133.804 99.5913 132.452 97.7163 132.452C95.8413 132.452 94.3213 133.804 94.3213 135.473C94.3213 137.141 95.8413 138.493 97.7163 138.493Z" fill="#F2F2F2"/>
<path d="M101.895 164.054C101.895 164.054 98.4997 156.618 108.685 151.041L101.895 164.054Z" fill="#F2F2F2"/>
<path d="M97.7198 163.919C97.7198 163.919 96.1747 156.012 84.2158 156.08L97.7198 163.919Z" fill="#F2F2F2"/>
<path opacity="0.2" d="M84.203 97.3636C95.7416 97.3636 105.095 89.0407 105.095 78.7739C105.095 68.5071 95.7416 60.1842 84.203 60.1842C72.6644 60.1842 63.3105 68.5071 63.3105 78.7739C63.3105 89.0407 72.6644 97.3636 84.203 97.3636Z" fill="#2E4DA7"/>
<path opacity="0.2" d="M84.2032 91.8653C92.329 91.8653 98.9162 86.0041 98.9162 78.7739C98.9162 71.5438 92.329 65.6826 84.2032 65.6826C76.0775 65.6826 69.4902 71.5438 69.4902 78.7739C69.4902 86.0041 76.0775 91.8653 84.2032 91.8653Z" fill="#2E4DA7"/>
<path d="M84.2037 87.4142C89.5667 87.4142 93.9143 83.5458 93.9143 78.7739C93.9143 74.002 89.5667 70.1336 84.2037 70.1336C78.8407 70.1336 74.4932 74.002 74.4932 78.7739C74.4932 83.5458 78.8407 87.4142 84.2037 87.4142Z" fill="#2E4DA7"/>
<path d="M85.9686 76.9103C85.9687 76.6452 85.8934 76.3844 85.7497 76.1521C85.6059 75.9199 85.3985 75.7238 85.1467 75.5821C84.8948 75.4404 84.6068 75.3578 84.3093 75.3418C84.0119 75.3258 83.7148 75.3771 83.4456 75.4908C83.1765 75.6046 82.9441 75.7771 82.77 75.9923C82.596 76.2074 82.486 76.4583 82.4502 76.7215C82.4145 76.9847 82.4542 77.2517 82.5657 77.4976C82.6772 77.7435 82.8567 77.9602 83.0877 78.1277L82.4375 82.1777H85.9686L85.3184 78.1277C85.5217 77.9806 85.6856 77.795 85.7981 77.5844C85.9106 77.3738 85.9688 77.1435 85.9686 76.9103Z" fill="white"/>
<path d="M181.793 12.3854C181.793 12.3854 175.968 7.73913 168.136 16.4955C160.303 25.2519 148.052 29.5407 145.24 32.936C145.24 32.936 156.889 28.6472 160.906 26.8602C164.922 25.0732 164.721 25.4306 164.721 25.4306C164.721 25.4306 159.299 28.8259 158.295 32.2212C157.29 35.6165 158.094 38.4758 156.286 41.8711C154.479 45.2664 190.83 44.1942 190.83 44.1942C190.83 44.1942 194.445 38.6545 193.441 32.936C192.437 27.2176 193.039 13.1002 181.793 12.3854Z" fill="#2F2E41"/>
<path d="M170.776 27.002C170.776 27.002 172.043 34.8903 166.615 36.6611C161.187 38.4319 163.178 40.8467 163.178 40.8467L171.319 44.3884L180.004 41.9736L182.898 38.11C182.898 38.11 178.194 37.1441 179.461 34.2463C180.727 31.3486 181.089 30.3827 181.089 30.3827L170.776 27.002Z" fill="#FFB9B9"/>
<path opacity="0.1" d="M170.776 27.002C170.776 27.002 172.043 34.8903 166.615 36.6611C161.187 38.4319 163.178 40.8467 163.178 40.8467L171.319 44.3884L180.004 41.9736L182.898 38.11C182.898 38.11 178.194 37.1441 179.461 34.2463C180.727 31.3486 181.089 30.3827 181.089 30.3827L170.776 27.002Z" fill="black"/>
<path d="M193.573 49.5399C193.573 49.5399 192.307 64.3505 192.669 64.9944C193.03 65.6384 192.669 88.0153 192.669 88.0153C192.669 88.0153 195.202 100.089 191.945 100.733C188.688 101.377 189.412 87.2103 189.412 87.2103L186.155 68.5361L186.517 50.0229L193.573 49.5399Z" fill="#FFB9B9"/>
<path opacity="0.1" d="M193.573 49.5399C193.573 49.5399 192.307 64.3505 192.669 64.9944C193.03 65.6384 192.669 88.0153 192.669 88.0153C192.669 88.0153 195.202 100.089 191.945 100.733C188.688 101.377 189.412 87.2103 189.412 87.2103L186.155 68.5361L186.517 50.0229L193.573 49.5399Z" fill="black"/>
<path d="M158.292 94.1327C158.292 94.1327 152.321 114.256 152.502 124.076C152.683 133.896 155.035 147.58 155.035 147.58C155.035 147.58 155.397 153.536 154.854 154.18C154.311 154.824 157.568 157.561 157.568 157.561L161.006 155.79L162.272 154.502V153.375C162.272 153.375 160.282 147.902 161.91 143.555C163.539 139.208 164.443 128.261 162.815 124.881L174.032 95.2596L158.292 94.1327Z" fill="#FFB9B9"/>
<path d="M157.931 154.985C157.931 154.985 155.76 152.57 154.312 153.375C152.865 154.18 150.513 159.653 150.513 159.653C150.513 159.653 142.371 166.576 148.161 166.898C153.95 167.22 156.483 165.449 157.207 164.161C157.931 162.873 164.625 159.492 164.625 159.492C164.625 159.492 163.901 153.375 162.816 153.214C161.73 153.053 160.102 155.629 160.102 155.629L157.931 154.985Z" fill="#2F2E41"/>
<path d="M178.013 95.4205V115.383C178.034 117.805 178.216 120.224 178.556 122.627C179.099 126.169 175.48 152.57 175.48 152.57L175.842 157.239L180.365 156.917L180.908 152.892L187.422 135.184C187.422 135.184 189.593 124.398 188.507 120.373C187.422 116.349 194.116 90.591 194.116 90.591L178.013 95.4205Z" fill="#FFB9B9"/>
<path d="M174.395 156.112L175.735 155.853C175.735 155.853 176.747 153.858 178.013 154.341C178.905 154.707 179.749 155.157 180.532 155.684L181.089 156.595C181.089 156.595 182.356 159.01 183.984 160.619C185.612 162.229 187.421 165.771 184.708 166.093C181.994 166.415 178.375 166.576 177.29 165.771C176.204 164.966 176.928 163.678 175.842 163.356C174.757 163.034 173.852 162.068 174.033 161.746C174.214 161.424 174.395 156.112 174.395 156.112Z" fill="#2F2E41"/>
<path d="M178.013 32.5469C182.454 32.5469 186.054 29.3436 186.054 25.3922C186.054 21.4407 182.454 18.2374 178.013 18.2374C173.572 18.2374 169.972 21.4407 169.972 25.3922C169.972 29.3436 173.572 32.5469 178.013 32.5469Z" fill="#FFB9B9"/>
<path d="M162.815 37.949L165.205 37.2066C165.205 37.2066 164.263 38.593 169.329 39.3979C174.395 40.2028 179.641 40.4878 181.993 37.8501C181.993 37.8501 182.898 37.4661 184.165 38.593C185.431 39.7199 186.155 39.3979 186.155 39.3979L185.25 43.5835L183.441 51.3108L181.089 57.1062L174.395 55.8183L167.158 51.1498L164.444 44.8714V39.0759L162.815 37.949Z" fill="#2E4DA7"/>
<path d="M184.888 40.2028L186.697 39.0759C186.697 39.0759 192.849 40.0418 193.21 42.6176L188.506 50.6668C189.466 52.9065 189.401 55.3915 188.325 57.5891C186.516 61.2918 186.697 62.0967 186.697 62.0967L185.431 66.9262L162.453 68.5361C162.453 68.5361 161.548 66.6043 161.187 66.2823C160.825 65.9603 160.825 64.8334 161.187 64.8334C161.548 64.8334 161.187 64.3505 160.825 63.8675C160.463 63.3846 160.282 63.2236 160.825 62.5797C161.367 61.9357 159.92 56.1403 159.92 56.1403V49.8619L153.769 42.6176C153.769 42.6176 155.94 39.7198 157.025 39.3979C158.111 39.0759 163.275 37.8062 163.275 37.8062L164.443 39.337L166.072 50.9888L168.424 58.0721L178.327 56.5749L182.174 50.8278L184.707 44.0664L184.888 40.2028Z" fill="#2E4DA7"/>
<path d="M191.764 41.6516L193.211 42.6175C193.211 42.6175 194.477 51.6327 194.116 52.2766C193.754 52.9206 187.421 53.5645 187.24 53.2426C187.06 52.9206 191.764 41.6516 191.764 41.6516Z" fill="#2E4DA7"/>
<path d="M161.911 37.1441L163.72 47.7691C163.72 47.7691 162.091 63.5456 162.453 66.7653L162.815 67.7312C162.815 67.7312 162.091 67.4092 161.911 68.0532C161.73 68.6971 161.911 70.7899 161.911 70.7899C161.911 70.7899 160.825 71.7558 160.463 77.0683C160.101 82.3808 155.759 95.0986 157.387 95.5816C159.016 96.0646 168.786 98.4793 174.033 97.9964C179.279 97.5134 198.096 91.8789 197.915 90.4301C197.734 88.9812 188.688 68.5361 188.688 68.5361C188.688 68.5361 187.059 66.1214 187.059 65.7994C187.059 65.4774 189.23 64.1895 188.688 62.9017C188.145 61.6138 185.25 48.0911 185.25 48.0911L187.24 38.432L184.526 37.788L182.536 47.1251C182.536 47.1251 174.756 50.5058 166.615 47.4471L164.805 36.5002L161.911 37.1441Z" fill="#2F2E41"/>
<path d="M170.615 20.2575C170.615 20.2575 184.004 28.4677 187.622 24.7651C191.241 21.0624 181.29 17.8427 181.29 17.8427L172.967 17.0378L170.615 20.2575Z" fill="#2F2E41"/>
<path d="M149.813 107.598C151.191 108.51 152.896 108.945 154.608 108.819C156.32 108.693 157.922 108.016 159.113 106.915C160.304 105.814 161.003 104.363 161.079 102.836C161.155 101.309 160.602 99.8099 159.524 98.6196C158.446 97.4293 156.917 96.6296 155.224 96.3704C153.531 96.1112 151.79 96.4103 150.327 97.2117C148.864 98.0131 147.78 99.2617 147.278 100.724C146.775 102.185 146.889 103.76 147.599 105.152L129.133 118.832L126.675 116.236L125.57 116.893L124.341 115.595L125.351 114.838L124.121 113.54L122.55 114.718L123.307 115.517L121.623 116.779L120.867 115.98L118.397 117.831L119.532 119.029L120.43 118.356L121.659 119.654L120.537 120.496L122.807 122.892L120.113 124.912L122.855 127.808L149.813 107.598ZM154.423 98.4208C155.344 98.4908 156.22 98.802 156.941 99.3151C157.663 99.8282 158.197 100.52 158.477 101.303C158.756 102.087 158.768 102.926 158.512 103.716C158.255 104.505 157.741 105.209 157.035 105.739C156.328 106.268 155.462 106.599 154.544 106.69C153.626 106.782 152.698 106.628 151.878 106.25C151.058 105.872 150.382 105.287 149.936 104.567C149.49 103.847 149.294 103.026 149.373 102.207C149.478 101.109 150.07 100.093 151.017 99.3833C151.964 98.6732 153.189 98.327 154.423 98.4208V98.4208Z" fill="#2E4DA7"/>
<path d="M152.503 51.4717C152.503 51.4717 153.769 66.2823 153.407 66.9263C153.045 67.5702 153.407 89.9471 153.407 89.9471C153.407 89.9471 150.874 102.021 154.131 102.665C157.388 103.309 156.664 89.1422 156.664 89.1422L159.921 70.4679L159.559 51.9547L152.503 51.4717Z" fill="#FFB9B9"/>
<path d="M155.217 42.1346L153.769 42.6175C153.769 42.6175 151.055 52.7596 151.779 52.7596C152.503 52.7596 161.187 53.7255 161.187 53.4035C161.187 53.0815 159.559 45.1933 159.559 45.1933L155.217 42.1346Z" fill="#2E4DA7"/>
</g>
<defs>
<clipPath id="clip0_304_37581">
<rect width="264" height="169" fill="white"/>
</clipPath>
</defs>
</svg>
