<svg width="272" height="172" viewBox="0 0 272 172" fill="none" xmlns="http://www.w3.org/2000/svg">
<g opacity="0.5">
<g clip-path="url(#clip0_3123_24828)">
<path d="M232.6 43.4958H225.375V68.5065H232.6V43.4958Z" fill="#F2F2F2"/>
<path d="M237.372 63.8016L219.798 42.8955L184.524 43.218L163.126 64.0601L163.558 64.338H163.404V107.69H237.324V64.338L237.372 63.8016Z" fill="#F2F2F2"/>
<path d="M219.816 42.9401L197.862 68.6785V107.69H237.324V63.7822L219.816 42.9401Z" fill="#E6E6E6"/>
<path d="M221.762 86.116H213.703V93.2392H221.762V86.116Z" fill="#3F3D56"/>
<path d="M221.762 73.7865H213.703V80.7968H221.762V73.7865Z" fill="#3F3D56"/>
<path d="M221.762 86.116H213.703V93.2392H221.762V86.116Z" fill="white"/>
<path d="M221.762 73.7865H213.703V80.7968H221.762V73.7865Z" fill="white"/>
<path d="M185.948 84.2258H177.889V91.349H185.948V84.2258Z" fill="white"/>
<path d="M185.948 71.8964H177.889V78.9066H185.948V71.8964Z" fill="white"/>
<path d="M175.582 43.4958H168.356V68.5065H175.582V43.4958Z" fill="#F2F2F2"/>
<path d="M180.354 63.8016L162.781 42.8955L127.507 43.218L106.108 64.0601L106.541 64.338H106.386V107.69H180.307V64.338L180.354 63.8016Z" fill="#F2F2F2"/>
<path d="M162.799 42.9401L140.846 68.6785V107.69H180.307V63.7822L162.799 42.9401Z" fill="#E6E6E6"/>
<path d="M164.745 86.116H156.686V93.2392H164.745V86.116Z" fill="#3F3D56"/>
<path d="M164.745 73.7865H156.686V80.7968H164.745V73.7865Z" fill="#3F3D56"/>
<path d="M164.745 86.116H156.686V93.2392H164.745V86.116Z" fill="white"/>
<path d="M164.745 73.7865H156.686V80.7968H164.745V73.7865Z" fill="white"/>
<path d="M128.929 84.2258H120.87V91.349H128.929V84.2258Z" fill="white"/>
<path d="M128.929 71.8964H120.87V78.9066H128.929V71.8964Z" fill="white"/>
<path d="M117.2 21.9111H107.545V55.3314H117.2V21.9111Z" fill="#F2F2F2"/>
<path d="M123.576 49.0443L100.094 21.109L52.9591 21.5398L24.3662 49.39L24.9438 49.7613H24.7375V107.69H123.513V49.7613L123.576 49.0443Z" fill="#F2F2F2"/>
<path d="M100.118 21.1683L70.7822 55.5612V107.69H123.512V49.0186L100.118 21.1683Z" fill="#E6E6E6"/>
<path d="M102.718 78.8619H91.9492V88.3803H102.718V78.8619Z" fill="#3F3D56"/>
<path d="M102.718 62.3867H91.9492V71.7541H102.718V62.3867Z" fill="#3F3D56"/>
<path d="M102.718 78.8619H91.9492V88.3803H102.718V78.8619Z" fill="white"/>
<path d="M102.718 62.3867H91.9492V71.7541H102.718V62.3867Z" fill="white"/>
<path d="M54.8605 76.3363H44.0918V85.8546H54.8605V76.3363Z" fill="white"/>
<path d="M54.8605 59.8611H44.0918V69.2285H54.8605V59.8611Z" fill="white"/>
<path d="M247.405 107.476H16.4717V107.955H247.405V107.476Z" fill="#3F3D56"/>
<path d="M52.8561 98.6659C56.7062 98.6659 59.8274 92.2975 59.8274 84.4416C59.8274 76.5857 56.7062 70.2173 52.8561 70.2173C49.0059 70.2173 45.8848 76.5857 45.8848 84.4416C45.8848 92.2975 49.0059 98.6659 52.8561 98.6659Z" fill="#3F3D56"/>
<path d="M53.4991 107.725C50.7071 90.9726 53.471 74.2811 53.4993 74.1146L54.0424 74.2066C54.0143 74.3723 51.2662 90.9761 54.0425 107.634L53.4991 107.725Z" fill="#2E4DA7"/>
<path d="M58.9934 81.383L52.6895 84.7549L52.9493 85.2407L59.2533 81.8688L58.9934 81.383Z" fill="#2E4DA7"/>
<path d="M46.2961 83.0721L46.0361 83.5579L52.3393 86.9317L52.5993 86.4459L46.2961 83.0721Z" fill="#2E4DA7"/>
<path d="M36.1058 90.3256C43.6362 90.3256 49.7409 77.8697 49.7409 62.5045C49.7409 47.1394 43.6362 34.6835 36.1058 34.6835C28.5753 34.6835 22.4707 47.1394 22.4707 62.5045C22.4707 77.8697 28.5753 90.3256 36.1058 90.3256Z" fill="#2E4DA7"/>
<path d="M37.6246 108C32.1709 75.2783 37.5696 42.6757 37.6247 42.3502L38.1679 42.4422C38.1128 42.7669 32.73 75.2817 38.168 107.91L37.6246 108Z" fill="#3F3D56"/>
<path d="M48.2344 56.7542L35.9043 63.3494L36.1641 63.8352L48.4942 57.24L48.2344 56.7542Z" fill="#3F3D56"/>
<path d="M23.1516 60.0581L22.8916 60.5438L35.2199 67.1424L35.4799 66.6567L23.1516 60.0581Z" fill="#3F3D56"/>
<path d="M68.3997 83.8307C78.7045 83.8307 87.0583 66.7858 87.0583 45.7598C87.0583 24.7338 78.7045 7.68884 68.3997 7.68884C58.0949 7.68884 49.7412 24.7338 49.7412 45.7598C49.7412 66.7858 58.0949 83.8307 68.3997 83.8307Z" fill="#2E4DA7"/>
<path d="M70.5775 108C63.1174 63.2395 70.5022 18.6423 70.5777 18.1971L71.1208 18.2891C71.0455 18.7335 63.6765 63.243 71.1209 107.91L70.5775 108Z" fill="#3F3D56"/>
<path d="M85.0446 37.9803L68.1719 47.0052L68.4317 47.4911L85.3045 38.4661L85.0446 37.9803Z" fill="#3F3D56"/>
<path d="M50.6242 42.5013L50.3643 42.9871L67.2346 52.0165L67.4946 51.5307L50.6242 42.5013Z" fill="#3F3D56"/>
<path d="M225.144 98.6659C228.994 98.6659 232.115 92.2975 232.115 84.4416C232.115 76.5857 228.994 70.2173 225.144 70.2173C221.294 70.2173 218.173 76.5857 218.173 84.4416C218.173 92.2975 221.294 98.6659 225.144 98.6659Z" fill="#3F3D56"/>
<path d="M224.5 107.725C227.293 90.9726 224.529 74.2811 224.5 74.1146L223.957 74.2066C223.985 74.3723 226.733 90.9761 223.957 107.634L224.5 107.725Z" fill="#2E4DA7"/>
<path d="M219.006 81.383L218.746 81.8688L225.05 85.2407L225.31 84.7548L219.006 81.383Z" fill="#2E4DA7"/>
<path d="M231.704 83.0721L225.4 86.4459L225.66 86.9317L231.964 83.5579L231.704 83.0721Z" fill="#2E4DA7"/>
<path d="M241.894 90.3256C249.424 90.3256 255.529 77.8697 255.529 62.5045C255.529 47.1394 249.424 34.6835 241.894 34.6835C234.363 34.6835 228.259 47.1394 228.259 62.5045C228.259 77.8697 234.363 90.3256 241.894 90.3256Z" fill="#2E4DA7"/>
<path d="M240.375 108C245.829 75.2783 240.43 42.6757 240.375 42.3502L239.832 42.4422C239.887 42.7669 245.27 75.2817 239.832 107.91L240.375 108Z" fill="#3F3D56"/>
<path d="M229.766 56.7542L229.506 57.24L241.836 63.8352L242.096 63.3494L229.766 56.7542Z" fill="#3F3D56"/>
<path d="M254.848 60.058L242.52 66.6566L242.78 67.1424L255.108 60.5438L254.848 60.058Z" fill="#3F3D56"/>
<path d="M209.6 83.8307C219.905 83.8307 228.258 66.7858 228.258 45.7598C228.258 24.7338 219.905 7.68884 209.6 7.68884C199.295 7.68884 190.941 24.7338 190.941 45.7598C190.941 66.7858 199.295 83.8307 209.6 83.8307Z" fill="#2E4DA7"/>
<path d="M207.422 108C214.882 63.2395 207.498 18.6423 207.422 18.1971L206.879 18.2891C206.954 18.7335 214.323 63.243 206.879 107.91L207.422 108Z" fill="#3F3D56"/>
<path d="M192.955 37.9802L192.695 38.4661L209.568 47.491L209.828 47.0052L192.955 37.9802Z" fill="#3F3D56"/>
<path d="M227.375 42.5014L210.505 51.5308L210.765 52.0165L227.635 42.9871L227.375 42.5014Z" fill="#3F3D56"/>
<path d="M157.723 24.3081L159.929 22.5442C158.215 22.3552 157.511 23.2896 157.223 24.0292C155.885 23.4734 154.428 24.2018 154.428 24.2018L158.84 25.8037C158.618 25.2091 158.23 24.6903 157.723 24.3081Z" fill="#3F3D56"/>
<path d="M103.82 8.73612L106.025 6.97221C104.312 6.78319 103.608 7.71758 103.32 8.45715C101.982 7.90135 100.524 8.62975 100.524 8.62975L104.937 10.2317C104.714 9.6371 104.327 9.1183 103.82 8.73612Z" fill="#3F3D56"/>
<path d="M191.742 1.78861L193.947 0.0247025C192.234 -0.164318 191.53 0.770067 191.242 1.50964C189.903 0.953841 188.446 1.68224 188.446 1.68224L192.859 3.28418C192.636 2.68959 192.249 2.17079 191.742 1.78861Z" fill="#3F3D56"/>
<path d="M196.195 104.704C195.608 104.704 195.032 104.859 194.525 105.152C194.009 104.686 193.37 104.38 192.684 104.27C191.997 104.161 191.294 104.253 190.659 104.535C190.024 104.817 189.485 105.278 189.107 105.861C188.728 106.444 188.527 107.124 188.528 107.819H199.536C199.476 106.973 199.098 106.182 198.478 105.604C197.858 105.026 197.042 104.705 196.195 104.704Z" fill="#3F3D56"/>
<path d="M84.3156 104.704C83.7294 104.704 83.1535 104.859 82.646 105.152C82.1305 104.686 81.4909 104.38 80.8047 104.27C80.1185 104.161 79.4152 104.253 78.7803 104.535C78.1453 104.817 77.606 105.278 77.2277 105.861C76.8495 106.444 76.6486 107.124 76.6494 107.819H87.6575C87.5975 106.973 87.2194 106.182 86.5993 105.604C85.9793 105.026 85.1633 104.705 84.3156 104.704Z" fill="#3F3D56"/>
<path d="M141.572 104.704C140.986 104.704 140.41 104.859 139.903 105.152C139.387 104.686 138.748 104.38 138.062 104.27C137.375 104.161 136.672 104.253 136.037 104.535C135.402 104.817 134.863 105.278 134.485 105.861C134.106 106.444 133.905 107.124 133.906 107.819H144.914C144.854 106.973 144.476 106.182 143.856 105.604C143.236 105.026 142.42 104.705 141.572 104.704Z" fill="#3F3D56"/>
<path d="M129.491 96.8408H97.7314V97.8652H102.685V107.598H103.709V97.8652H123.001V107.598H124.025V97.8652H129.491V96.8408Z" fill="#3F3D56"/>
<path d="M129.553 93.7758H97.7939V94.8002H129.553V93.7758Z" fill="#3F3D56"/>
<path d="M129.553 91.2146H97.7939V92.2391H129.553V91.2146Z" fill="#3F3D56"/>
<path d="M129.553 88.6533H97.7939V89.6778H129.553V88.6533Z" fill="#3F3D56"/>
<path d="M179.082 96.8408H147.322V97.8652H152.275V107.598H153.3V97.8652H172.592V107.598H173.616V97.8652H179.082V96.8408Z" fill="#3F3D56"/>
<path d="M179.144 93.7758H147.385V94.8002H179.144V93.7758Z" fill="#3F3D56"/>
<path d="M179.144 91.2146H147.385V92.2391H179.144V91.2146Z" fill="#3F3D56"/>
<path d="M179.144 88.6533H147.385V89.6778H179.144V88.6533Z" fill="#3F3D56"/>
</g>
<path d="M5.95905 138.141H9.13093V147H10.6622V138.141H13.839V136.818H5.95905V138.141ZM17.0475 142.466C17.0475 141.248 17.8181 140.552 18.8771 140.552C19.9012 140.552 20.5127 141.203 20.5127 142.322V147H21.9992V142.143C21.9992 140.239 20.9552 139.264 19.3842 139.264C18.1959 139.264 17.48 139.781 17.1221 140.607H17.0276V136.818H15.561V147H17.0475V142.466ZM27.3741 147.154C29.0396 147.154 30.2178 146.334 30.5559 145.091L29.1489 144.837C28.8805 145.558 28.2342 145.926 27.389 145.926C26.1163 145.926 25.2611 145.101 25.2214 143.629H30.6504V143.102C30.6504 140.343 28.9998 139.264 27.2697 139.264C25.1418 139.264 23.7398 140.885 23.7398 143.232C23.7398 145.603 25.1219 147.154 27.3741 147.154ZM25.2263 142.516C25.286 141.432 26.0715 140.492 27.2796 140.492C28.433 140.492 29.1887 141.347 29.1937 142.516H25.2263ZM32.3997 147H33.8862V142.337C33.8862 141.337 34.6568 140.616 35.7108 140.616C36.019 140.616 36.367 140.671 36.4863 140.706V139.284C36.3372 139.264 36.0439 139.249 35.8549 139.249C34.96 139.249 34.1944 139.756 33.916 140.577H33.8365V139.364H32.3997V147ZM40.8905 147.154C42.556 147.154 43.7342 146.334 44.0723 145.091L42.6653 144.837C42.3969 145.558 41.7506 145.926 40.9054 145.926C39.6327 145.926 38.7776 145.101 38.7378 143.629H44.1668V143.102C44.1668 140.343 42.5162 139.264 40.7861 139.264C38.6582 139.264 37.2562 140.885 37.2562 143.232C37.2562 145.603 38.6384 147.154 40.8905 147.154ZM38.7428 142.516C38.8024 141.432 39.5879 140.492 40.796 140.492C41.9494 140.492 42.7051 141.347 42.7101 142.516H38.7428ZM47.1938 136.818H45.9211V137.788C45.9211 138.558 45.583 139.19 45.1952 139.761L45.931 140.288C46.6966 139.672 47.1938 138.618 47.1938 137.773V136.818ZM53.4884 141.228C53.1801 140.04 52.2505 139.264 50.5999 139.264C48.8747 139.264 47.6517 140.174 47.6517 141.526C47.6517 142.61 48.308 143.331 49.7398 143.649L51.0324 143.933C51.7682 144.097 52.1113 144.425 52.1113 144.902C52.1113 145.494 51.4799 145.956 50.5054 145.956C49.6155 145.956 49.0438 145.573 48.8648 144.822L47.428 145.041C47.6766 146.393 48.8002 147.154 50.5154 147.154C52.3598 147.154 53.6375 146.175 53.6375 144.793C53.6375 143.714 52.9515 143.048 51.5495 142.724L50.3364 142.446C49.4962 142.247 49.1333 141.964 49.1382 141.447C49.1333 140.86 49.7696 140.442 50.6148 140.442C51.5395 140.442 51.9671 140.955 52.1411 141.467L53.4884 141.228ZM67.5144 136.818H65.9931V144.295H65.8986L60.7182 136.818H59.2963V147H60.8326V139.533H60.927L66.1024 147H67.5144V136.818ZM72.9526 147.154C75.1053 147.154 76.5123 145.578 76.5123 143.217C76.5123 140.84 75.1053 139.264 72.9526 139.264C70.7999 139.264 69.393 140.84 69.393 143.217C69.393 145.578 70.7999 147.154 72.9526 147.154ZM72.9576 145.906C71.5506 145.906 70.8944 144.678 70.8944 143.212C70.8944 141.75 71.5506 140.507 72.9576 140.507C74.3546 140.507 75.0109 141.75 75.0109 143.212C75.0109 144.678 74.3546 145.906 72.9576 145.906ZM83.056 147L83.9907 144.305H87.968L88.8977 147H90.5283L86.8643 136.818H85.0894L81.4254 147H83.056ZM84.4381 143.013L85.9396 138.668H86.0191L87.5205 143.013H84.4381ZM91.9794 149.864H93.4659V145.812H93.5554C93.8238 146.299 94.3707 147.149 95.7627 147.149C97.6122 147.149 98.9545 145.668 98.9545 143.197C98.9545 140.721 97.5923 139.264 95.7478 139.264C94.3309 139.264 93.8189 140.129 93.5554 140.602H93.4311V139.364H91.9794V149.864ZM93.436 143.182C93.436 141.586 94.1321 140.527 95.4296 140.527C96.7769 140.527 97.4531 141.665 97.4531 143.182C97.4531 144.713 96.7571 145.881 95.4296 145.881C94.1519 145.881 93.436 144.788 93.436 143.182ZM100.72 149.864H102.206V145.812H102.296C102.564 146.299 103.111 147.149 104.503 147.149C106.353 147.149 107.695 145.668 107.695 143.197C107.695 140.721 106.333 139.264 104.488 139.264C103.072 139.264 102.559 140.129 102.296 140.602H102.172V139.364H100.72V149.864ZM102.177 143.182C102.177 141.586 102.873 140.527 104.17 140.527C105.518 140.527 106.194 141.665 106.194 143.182C106.194 144.713 105.498 145.881 104.17 145.881C102.893 145.881 102.177 144.788 102.177 143.182ZM112.677 147.154C114.83 147.154 116.237 145.578 116.237 143.217C116.237 140.84 114.83 139.264 112.677 139.264C110.525 139.264 109.118 140.84 109.118 143.217C109.118 145.578 110.525 147.154 112.677 147.154ZM112.682 145.906C111.275 145.906 110.619 144.678 110.619 143.212C110.619 141.75 111.275 140.507 112.682 140.507C114.079 140.507 114.735 141.75 114.735 143.212C114.735 144.678 114.079 145.906 112.682 145.906ZM117.996 147H119.483V139.364H117.996V147ZM118.747 138.185C119.259 138.185 119.687 137.788 119.687 137.3C119.687 136.813 119.259 136.411 118.747 136.411C118.23 136.411 117.807 136.813 117.807 137.3C117.807 137.788 118.23 138.185 118.747 138.185ZM123.069 142.466C123.069 141.248 123.815 140.552 124.849 140.552C125.858 140.552 126.47 141.213 126.47 142.322V147H127.956V142.143C127.956 140.254 126.917 139.264 125.356 139.264C124.207 139.264 123.457 139.796 123.104 140.607H123.009V139.364H121.582V147H123.069V142.466ZM133.614 139.364H132.048V137.534H130.562V139.364H129.443V140.557H130.562V145.066C130.557 146.453 131.616 147.124 132.789 147.099C133.261 147.094 133.58 147.005 133.754 146.94L133.485 145.712C133.386 145.732 133.202 145.777 132.963 145.777C132.481 145.777 132.048 145.618 132.048 144.758V140.557H133.614V139.364ZM135.359 147H136.845V142.292C136.845 141.263 137.566 140.547 138.411 140.547C139.237 140.547 139.808 141.094 139.808 141.924V147H141.29V142.133C141.29 141.213 141.852 140.547 142.821 140.547C143.607 140.547 144.253 140.984 144.253 142.018V147H145.739V141.879C145.739 140.134 144.765 139.264 143.383 139.264C142.284 139.264 141.459 139.791 141.091 140.607H141.011C140.678 139.771 139.977 139.264 138.958 139.264C137.949 139.264 137.198 139.766 136.88 140.607H136.786V139.364H135.359V147ZM151.123 147.154C152.788 147.154 153.967 146.334 154.305 145.091L152.898 144.837C152.629 145.558 151.983 145.926 151.138 145.926C149.865 145.926 149.01 145.101 148.97 143.629H154.399V143.102C154.399 140.343 152.749 139.264 151.018 139.264C148.891 139.264 147.489 140.885 147.489 143.232C147.489 145.603 148.871 147.154 151.123 147.154ZM148.975 142.516C149.035 141.432 149.82 140.492 151.028 140.492C152.182 140.492 152.938 141.347 152.942 142.516H148.975ZM157.635 142.466C157.635 141.248 158.381 140.552 159.415 140.552C160.424 140.552 161.036 141.213 161.036 142.322V147H162.522V142.143C162.522 140.254 161.483 139.264 159.922 139.264C158.774 139.264 158.023 139.796 157.67 140.607H157.575V139.364H156.149V147H157.635V142.466ZM168.18 139.364H166.614V137.534H165.128V139.364H164.009V140.557H165.128V145.066C165.123 146.453 166.182 147.124 167.355 147.099C167.827 147.094 168.146 147.005 168.32 146.94L168.051 145.712C167.952 145.732 167.768 145.777 167.529 145.777C167.047 145.777 166.614 145.618 166.614 144.758V140.557H168.18V139.364ZM173.73 147H175.216V139.364H173.73V147ZM174.48 138.185C174.993 138.185 175.42 137.788 175.42 137.3C175.42 136.813 174.993 136.411 174.48 136.411C173.963 136.411 173.541 136.813 173.541 137.3C173.541 137.788 173.963 138.185 174.48 138.185ZM178.803 142.466C178.803 141.248 179.548 140.552 180.582 140.552C181.592 140.552 182.203 141.213 182.203 142.322V147H183.69V142.143C183.69 140.254 182.651 139.264 181.09 139.264C179.941 139.264 179.19 139.796 178.837 140.607H178.743V139.364H177.316V147H178.803V142.466ZM190.528 149.864C191.756 149.864 192.532 149.222 192.974 148.019L196.131 139.379L194.525 139.364L192.591 145.29H192.512L190.578 139.364H188.987L191.781 147.099L191.597 147.607C191.219 148.621 190.687 148.705 189.872 148.482L189.514 149.7C189.693 149.779 190.081 149.864 190.528 149.864ZM200.575 147.154C202.728 147.154 204.135 145.578 204.135 143.217C204.135 140.84 202.728 139.264 200.575 139.264C198.422 139.264 197.015 140.84 197.015 143.217C197.015 145.578 198.422 147.154 200.575 147.154ZM200.58 145.906C199.173 145.906 198.517 144.678 198.517 143.212C198.517 141.75 199.173 140.507 200.58 140.507C201.977 140.507 202.633 141.75 202.633 143.212C202.633 144.678 201.977 145.906 200.58 145.906ZM210.731 143.833C210.736 145.131 209.772 145.747 208.936 145.747C208.017 145.747 207.38 145.081 207.38 144.042V139.364H205.894V144.221C205.894 146.115 206.933 147.099 208.4 147.099C209.548 147.099 210.328 146.493 210.681 145.678H210.761V147H212.223V139.364H210.731V143.833ZM214.32 147H215.806V142.337C215.806 141.337 216.577 140.616 217.631 140.616C217.939 140.616 218.287 140.671 218.407 140.706V139.284C218.257 139.264 217.964 139.249 217.775 139.249C216.88 139.249 216.115 139.756 215.836 140.577H215.757V139.364H214.32V147ZM223.598 147H225.085V142.337C225.085 141.337 225.855 140.616 226.909 140.616C227.217 140.616 227.565 140.671 227.685 140.706V139.284C227.536 139.264 227.242 139.249 227.053 139.249C226.158 139.249 225.393 139.756 225.114 140.577H225.035V139.364H223.598V147ZM232.089 147.154C233.754 147.154 234.933 146.334 235.271 145.091L233.864 144.837C233.595 145.558 232.949 145.926 232.104 145.926C230.831 145.926 229.976 145.101 229.936 143.629H235.365V143.102C235.365 140.343 233.715 139.264 231.985 139.264C229.857 139.264 228.455 140.885 228.455 143.232C228.455 145.603 229.837 147.154 232.089 147.154ZM229.941 142.516C230.001 141.432 230.786 140.492 231.994 140.492C233.148 140.492 233.904 141.347 233.909 142.516H229.941ZM240.331 147.154C242.136 147.154 243.304 146.07 243.468 144.584H242.021C241.833 145.409 241.191 145.896 240.341 145.896C239.083 145.896 238.273 144.847 238.273 143.182C238.273 141.546 239.098 140.517 240.341 140.517C241.286 140.517 241.862 141.114 242.021 141.83H243.468C243.309 140.288 242.051 139.264 240.316 139.264C238.164 139.264 236.771 140.885 236.771 143.217C236.771 145.518 238.114 147.154 240.331 147.154ZM248.374 147.154C250.527 147.154 251.934 145.578 251.934 143.217C251.934 140.84 250.527 139.264 248.374 139.264C246.222 139.264 244.815 140.84 244.815 143.217C244.815 145.578 246.222 147.154 248.374 147.154ZM248.379 145.906C246.973 145.906 246.316 144.678 246.316 143.212C246.316 141.75 246.973 140.507 248.379 140.507C249.776 140.507 250.433 141.75 250.433 143.212C250.433 144.678 249.776 145.906 248.379 145.906ZM253.693 147H255.18V142.337C255.18 141.337 255.951 140.616 257.005 140.616C257.313 140.616 257.661 140.671 257.78 140.706V139.284C257.631 139.264 257.338 139.249 257.149 139.249C256.254 139.249 255.488 139.756 255.21 140.577H255.13V139.364H253.693V147ZM261.752 147.149C263.144 147.149 263.691 146.299 263.959 145.812H264.083V147H265.535V136.818H264.049V140.602H263.959C263.691 140.129 263.184 139.264 261.762 139.264C259.917 139.264 258.56 140.721 258.56 143.197C258.56 145.668 259.897 147.149 261.752 147.149ZM262.08 145.881C260.752 145.881 260.061 144.713 260.061 143.182C260.061 141.665 260.737 140.527 262.08 140.527C263.377 140.527 264.073 141.586 264.073 143.182C264.073 144.788 263.362 145.881 262.08 145.881ZM1.444 167H7.59386V165.678H2.98022V156.818H1.444V167ZM12.6182 167.154C14.2837 167.154 15.462 166.334 15.8 165.091L14.3931 164.837C14.1246 165.558 13.4783 165.926 12.6331 165.926C11.3604 165.926 10.5053 165.101 10.4655 163.629H15.8945V163.102C15.8945 160.343 14.2439 159.264 12.5138 159.264C10.386 159.264 8.98399 160.885 8.98399 163.232C8.98399 165.603 10.3661 167.154 12.6182 167.154ZM10.4705 162.516C10.5302 161.432 11.3157 160.492 12.5238 160.492C13.6772 160.492 14.4329 161.347 14.4378 162.516H10.4705ZM21.2085 159.364H19.6424V157.534H18.1559V159.364H17.0373V160.557H18.1559V165.066C18.1509 166.453 19.2099 167.124 20.3832 167.099C20.8555 167.094 21.1737 167.005 21.3477 166.94L21.0792 165.712C20.9798 165.732 20.7958 165.777 20.5572 165.777C20.0749 165.777 19.6424 165.618 19.6424 164.758V160.557H21.2085V159.364ZM24.6133 156.818H23.3406V157.788C23.3406 158.558 23.0025 159.19 22.6147 159.761L23.3505 160.288C24.1162 159.672 24.6133 158.618 24.6133 157.773V156.818ZM30.9079 161.228C30.5997 160.04 29.67 159.264 28.0194 159.264C26.2943 159.264 25.0713 160.174 25.0713 161.526C25.0713 162.61 25.7275 163.331 27.1593 163.649L28.452 163.933C29.1878 164.097 29.5308 164.425 29.5308 164.902C29.5308 165.494 28.8994 165.956 27.925 165.956C27.0351 165.956 26.4633 165.573 26.2843 164.822L24.8476 165.041C25.0961 166.393 26.2197 167.154 27.9349 167.154C29.7794 167.154 31.0571 166.175 31.0571 164.793C31.0571 163.714 30.371 163.048 28.969 162.724L27.7559 162.446C26.9157 162.247 26.5528 161.964 26.5578 161.447C26.5528 160.86 27.1892 160.442 28.0343 160.442C28.9591 160.442 29.3866 160.955 29.5606 161.467L30.9079 161.228ZM38.2521 167H39.7635L41.3146 161.487H41.4289L42.9801 167H44.4964L46.7386 159.364H45.2024L43.7159 164.947H43.6413L42.1498 159.364H40.6136L39.1122 164.972H39.0376L37.5412 159.364H36.0049L38.2521 167ZM50.4716 167.169C51.7344 167.169 52.4453 166.528 52.7287 165.956H52.7884V167H54.2401V161.929C54.2401 159.707 52.4901 159.264 51.277 159.264C49.8949 159.264 48.6222 159.821 48.125 161.213L49.522 161.531C49.7408 160.989 50.2976 160.467 51.2969 160.467C52.2564 160.467 52.7486 160.969 52.7486 161.835V161.869C52.7486 162.411 52.1918 162.401 50.8196 162.56C49.3729 162.729 47.8913 163.107 47.8913 164.842C47.8913 166.344 49.0199 167.169 50.4716 167.169ZM50.7947 165.976C49.9545 165.976 49.348 165.598 49.348 164.862C49.348 164.067 50.054 163.783 50.9141 163.669C51.3963 163.604 52.5398 163.475 52.7536 163.261V164.246C52.7536 165.151 52.0327 165.976 50.7947 165.976ZM56.32 167H57.8065V159.364H56.32V167ZM57.0707 158.185C57.5828 158.185 58.0103 157.788 58.0103 157.3C58.0103 156.813 57.5828 156.411 57.0707 156.411C56.5537 156.411 56.1311 156.813 56.1311 157.3C56.1311 157.788 56.5537 158.185 57.0707 158.185ZM63.471 159.364H61.9049V157.534H60.4184V159.364H59.2998V160.557H60.4184V165.066C60.4134 166.453 61.4724 167.124 62.6457 167.099C63.118 167.094 63.4362 167.005 63.6102 166.94L63.3417 165.712C63.2423 165.732 63.0583 165.777 62.8197 165.777C62.3374 165.777 61.9049 165.618 61.9049 164.758V160.557H63.471V159.364ZM72.585 159.364H71.019V157.534H69.5325V159.364H68.4139V160.557H69.5325V165.066C69.5275 166.453 70.5864 167.124 71.7597 167.099C72.232 167.094 72.5502 167.005 72.7242 166.94L72.4558 165.712C72.3563 165.732 72.1724 165.777 71.9337 165.777C71.4515 165.777 71.019 165.618 71.019 164.758V160.557H72.585V159.364ZM74.3294 167H75.8159V159.364H74.3294V167ZM75.0801 158.185C75.5922 158.185 76.0197 157.788 76.0197 157.3C76.0197 156.813 75.5922 156.411 75.0801 156.411C74.563 156.411 74.1404 156.813 74.1404 157.3C74.1404 157.788 74.563 158.185 75.0801 158.185ZM79.4022 156.818H77.9157V167H79.4022V156.818ZM82.9885 156.818H81.502V167H82.9885V156.818ZM94.6157 161.228C94.3075 160.04 93.3778 159.264 91.7272 159.264C90.0021 159.264 88.7791 160.174 88.7791 161.526C88.7791 162.61 89.4353 163.331 90.8672 163.649L92.1598 163.933C92.8956 164.097 93.2386 164.425 93.2386 164.902C93.2386 165.494 92.6072 165.956 91.6328 165.956C90.7429 165.956 90.1711 165.573 89.9922 164.822L88.5554 165.041C88.8039 166.393 89.9275 167.154 91.6427 167.154C93.4872 167.154 94.7649 166.175 94.7649 164.793C94.7649 163.714 94.0788 163.048 92.6768 162.724L91.4637 162.446C90.6235 162.247 90.2606 161.964 90.2656 161.447C90.2606 160.86 90.897 160.442 91.7422 160.442C92.6669 160.442 93.0944 160.955 93.2684 161.467L94.6157 161.228ZM99.7159 167.154C101.869 167.154 103.276 165.578 103.276 163.217C103.276 160.84 101.869 159.264 99.7159 159.264C97.5632 159.264 96.1562 160.84 96.1562 163.217C96.1562 165.578 97.5632 167.154 99.7159 167.154ZM99.7209 165.906C98.3139 165.906 97.6577 164.678 97.6577 163.212C97.6577 161.75 98.3139 160.507 99.7209 160.507C101.118 160.507 101.774 161.75 101.774 163.212C101.774 164.678 101.118 165.906 99.7209 165.906ZM105.035 167H106.521V162.292C106.521 161.263 107.242 160.547 108.087 160.547C108.913 160.547 109.484 161.094 109.484 161.924V167H110.966V162.133C110.966 161.213 111.528 160.547 112.497 160.547C113.283 160.547 113.929 160.984 113.929 162.018V167H115.416V161.879C115.416 160.134 114.441 159.264 113.059 159.264C111.96 159.264 111.135 159.791 110.767 160.607H110.688C110.354 159.771 109.653 159.264 108.634 159.264C107.625 159.264 106.874 159.766 106.556 160.607H106.462V159.364H105.035V167ZM120.799 167.154C122.465 167.154 123.643 166.334 123.981 165.091L122.574 164.837C122.305 165.558 121.659 165.926 120.814 165.926C119.541 165.926 118.686 165.101 118.646 163.629H124.075V163.102C124.075 160.343 122.425 159.264 120.695 159.264C118.567 159.264 117.165 160.885 117.165 163.232C117.165 165.603 118.547 167.154 120.799 167.154ZM118.651 162.516C118.711 161.432 119.497 160.492 120.705 160.492C121.858 160.492 122.614 161.347 122.619 162.516H118.651ZM129.041 167.154C131.194 167.154 132.601 165.578 132.601 163.217C132.601 160.84 131.194 159.264 129.041 159.264C126.889 159.264 125.482 160.84 125.482 163.217C125.482 165.578 126.889 167.154 129.041 167.154ZM129.046 165.906C127.639 165.906 126.983 164.678 126.983 163.212C126.983 161.75 127.639 160.507 129.046 160.507C130.443 160.507 131.1 161.75 131.1 163.212C131.1 164.678 130.443 165.906 129.046 165.906ZM135.847 162.466C135.847 161.248 136.592 160.552 137.627 160.552C138.636 160.552 139.247 161.213 139.247 162.322V167H140.734V162.143C140.734 160.254 139.695 159.264 138.134 159.264C136.985 159.264 136.235 159.796 135.882 160.607H135.787V159.364H134.36V167H135.847V162.466ZM146.119 167.154C147.784 167.154 148.962 166.334 149.3 165.091L147.893 164.837C147.625 165.558 146.979 165.926 146.134 165.926C144.861 165.926 144.006 165.101 143.966 163.629H149.395V163.102C149.395 160.343 147.744 159.264 146.014 159.264C143.886 159.264 142.484 160.885 142.484 163.232C142.484 165.603 143.866 167.154 146.119 167.154ZM143.971 162.516C144.031 161.432 144.816 160.492 146.024 160.492C147.178 160.492 147.933 161.347 147.938 162.516H143.971ZM156.605 167H158.116L159.667 161.487H159.782L161.333 167H162.849L165.091 159.364H163.555L162.069 164.947H161.994L160.503 159.364H158.966L157.465 164.972H157.39L155.894 159.364H154.358L156.605 167ZM168.824 167.169C170.087 167.169 170.798 166.528 171.081 165.956H171.141V167H172.593V161.929C172.593 159.707 170.843 159.264 169.63 159.264C168.248 159.264 166.975 159.821 166.478 161.213L167.875 161.531C168.094 160.989 168.65 160.467 169.65 160.467C170.609 160.467 171.101 160.969 171.101 161.835V161.869C171.101 162.411 170.544 162.401 169.172 162.56C167.726 162.729 166.244 163.107 166.244 164.842C166.244 166.344 167.373 167.169 168.824 167.169ZM169.147 165.976C168.307 165.976 167.701 165.598 167.701 164.862C167.701 164.067 168.407 163.783 169.267 163.669C169.749 163.604 170.893 163.475 171.106 163.261V164.246C171.106 165.151 170.385 165.976 169.147 165.976ZM176.159 162.466C176.159 161.248 176.905 160.552 177.939 160.552C178.948 160.552 179.56 161.213 179.56 162.322V167H181.046V162.143C181.046 160.254 180.007 159.264 178.446 159.264C177.298 159.264 176.547 159.796 176.194 160.607H176.1V159.364H174.673V167H176.159V162.466ZM186.705 159.364H185.138V157.534H183.652V159.364H182.533V160.557H183.652V165.066C183.647 166.453 184.706 167.124 185.879 167.099C186.352 167.094 186.67 167.005 186.844 166.94L186.575 165.712C186.476 165.732 186.292 165.777 186.053 165.777C185.571 165.777 185.138 165.618 185.138 164.758V160.557H186.705V159.364ZM195.819 159.364H194.253V157.534H192.766V159.364H191.647V160.557H192.766V165.066C192.761 166.453 193.82 167.124 194.993 167.099C195.466 167.094 195.784 167.005 195.958 166.94L195.689 165.712C195.59 165.732 195.406 165.777 195.167 165.777C194.685 165.777 194.253 165.618 194.253 164.758V160.557H195.819V159.364ZM200.698 167.154C202.85 167.154 204.257 165.578 204.257 163.217C204.257 160.84 202.85 159.264 200.698 159.264C198.545 159.264 197.138 160.84 197.138 163.217C197.138 165.578 198.545 167.154 200.698 167.154ZM200.703 165.906C199.296 165.906 198.639 164.678 198.639 163.212C198.639 161.75 199.296 160.507 200.703 160.507C202.1 160.507 202.756 161.75 202.756 163.212C202.756 164.678 202.1 165.906 200.703 165.906ZM209.822 167H211.308V162.292C211.308 161.263 212.029 160.547 212.874 160.547C213.699 160.547 214.271 161.094 214.271 161.924V167H215.753V162.133C215.753 161.213 216.314 160.547 217.284 160.547C218.069 160.547 218.716 160.984 218.716 162.018V167H220.202V161.879C220.202 160.134 219.228 159.264 217.846 159.264C216.747 159.264 215.922 159.791 215.554 160.607H215.474C215.141 159.771 214.44 159.264 213.421 159.264C212.412 159.264 211.661 159.766 211.343 160.607H211.248V159.364H209.822V167ZM225.586 167.154C227.251 167.154 228.43 166.334 228.768 165.091L227.361 164.837C227.092 165.558 226.446 165.926 225.601 165.926C224.328 165.926 223.473 165.101 223.433 163.629H228.862V163.102C228.862 160.343 227.212 159.264 225.481 159.264C223.354 159.264 221.952 160.885 221.952 163.232C221.952 165.603 223.334 167.154 225.586 167.154ZM223.438 162.516C223.498 161.432 224.283 160.492 225.491 160.492C226.645 160.492 227.4 161.347 227.405 162.516H223.438ZM233.903 167.154C235.568 167.154 236.746 166.334 237.084 165.091L235.677 164.837C235.409 165.558 234.763 165.926 233.918 165.926C232.645 165.926 231.79 165.101 231.75 163.629H237.179V163.102C237.179 160.343 235.528 159.264 233.798 159.264C231.67 159.264 230.268 160.885 230.268 163.232C230.268 165.603 231.65 167.154 233.903 167.154ZM231.755 162.516C231.815 161.432 232.6 160.492 233.808 160.492C234.962 160.492 235.717 161.347 235.722 162.516H231.755ZM242.493 159.364H240.927V157.534H239.44V159.364H238.322V160.557H239.44V165.066C239.435 166.453 240.494 167.124 241.668 167.099C242.14 167.094 242.458 167.005 242.632 166.94L242.364 165.712C242.264 165.732 242.08 165.777 241.842 165.777C241.359 165.777 240.927 165.618 240.927 164.758V160.557H242.493V159.364ZM248.982 169.864C250.21 169.864 250.985 169.222 251.428 168.019L254.585 159.379L252.979 159.364L251.045 165.29H250.966L249.032 159.364H247.441L250.235 167.099L250.051 167.607C249.673 168.621 249.141 168.705 248.326 168.482L247.968 169.7C248.147 169.779 248.534 169.864 248.982 169.864ZM259.029 167.154C261.182 167.154 262.588 165.578 262.588 163.217C262.588 160.84 261.182 159.264 259.029 159.264C256.876 159.264 255.469 160.84 255.469 163.217C255.469 165.578 256.876 167.154 259.029 167.154ZM259.034 165.906C257.627 165.906 256.971 164.678 256.971 163.212C256.971 161.75 257.627 160.507 259.034 160.507C260.431 160.507 261.087 161.75 261.087 163.212C261.087 164.678 260.431 165.906 259.034 165.906ZM269.185 163.833C269.19 165.131 268.226 165.747 267.39 165.747C266.471 165.747 265.834 165.081 265.834 164.042V159.364H264.348V164.221C264.348 166.115 265.387 167.099 266.853 167.099C268.002 167.099 268.782 166.493 269.135 165.678H269.215V167H270.677V159.364H269.185V163.833Z" fill="#77757C"/>
</g>
<defs>
<clipPath id="clip0_3123_24828">
<rect width="239.057" height="108" fill="white" transform="translate(16.4717)"/>
</clipPath>
</defs>
</svg>
