<svg width="11" height="14" viewBox="0 0 11 14" fill="none" xmlns="http://www.w3.org/2000/svg">
<path d="M0.166992 6.99992C0.166992 7.17673 0.23723 7.3463 0.362254 7.47132C0.487279 7.59635 0.656848 7.66659 0.833659 7.66659H5.89366L4.36033 9.19325C4.29784 9.25523 4.24824 9.32896 4.2144 9.4102C4.18055 9.49144 4.16313 9.57858 4.16313 9.66659C4.16313 9.75459 4.18055 9.84173 4.2144 9.92297C4.24824 10.0042 4.29784 10.0779 4.36033 10.1399C4.4223 10.2024 4.49603 10.252 4.57727 10.2858C4.65851 10.3197 4.74565 10.3371 4.83366 10.3371C4.92167 10.3371 5.0088 10.3197 5.09004 10.2858C5.17128 10.252 5.24502 10.2024 5.30699 10.1399L7.97366 7.47325C8.03435 7.40985 8.08193 7.33509 8.11366 7.25325C8.18034 7.09095 8.18034 6.90889 8.11366 6.74659C8.08193 6.66475 8.03435 6.58999 7.97366 6.52659L5.30699 3.85992C5.24483 3.79776 5.17104 3.74845 5.08983 3.71481C5.00861 3.68117 4.92157 3.66386 4.83366 3.66386C4.74575 3.66386 4.65871 3.68117 4.57749 3.71481C4.49628 3.74845 4.42248 3.79776 4.36033 3.85992C4.29817 3.92208 4.24886 3.99587 4.21522 4.07709C4.18158 4.1583 4.16426 4.24535 4.16426 4.33325C4.16426 4.42116 4.18158 4.5082 4.21522 4.58942C4.24886 4.67063 4.29817 4.74443 4.36033 4.80659L5.89366 6.33325H0.833659C0.656848 6.33325 0.487279 6.40349 0.362254 6.52851C0.23723 6.65354 0.166992 6.82311 0.166992 6.99992ZM8.83366 0.333252H2.16699C1.63656 0.333252 1.12785 0.543966 0.752779 0.919039C0.377706 1.29411 0.166992 1.80282 0.166992 2.33325V4.33325C0.166992 4.51006 0.23723 4.67963 0.362254 4.80466C0.487279 4.92968 0.656848 4.99992 0.833659 4.99992C1.01047 4.99992 1.18004 4.92968 1.30506 4.80466C1.43009 4.67963 1.50033 4.51006 1.50033 4.33325V2.33325C1.50033 2.15644 1.57056 1.98687 1.69559 1.86185C1.82061 1.73682 1.99018 1.66659 2.16699 1.66659H8.83366C9.01047 1.66659 9.18004 1.73682 9.30506 1.86185C9.43009 1.98687 9.50033 2.15644 9.50033 2.33325V11.6666C9.50033 11.8434 9.43009 12.013 9.30506 12.138C9.18004 12.263 9.01047 12.3333 8.83366 12.3333H2.16699C1.99018 12.3333 1.82061 12.263 1.69559 12.138C1.57056 12.013 1.50033 11.8434 1.50033 11.6666V9.66659C1.50033 9.48977 1.43009 9.32021 1.30506 9.19518C1.18004 9.07016 1.01047 8.99992 0.833659 8.99992C0.656848 8.99992 0.487279 9.07016 0.362254 9.19518C0.23723 9.32021 0.166992 9.48977 0.166992 9.66659V11.6666C0.166992 12.197 0.377706 12.7057 0.752779 13.0808C1.12785 13.4559 1.63656 13.6666 2.16699 13.6666H8.83366C9.36409 13.6666 9.8728 13.4559 10.2479 13.0808C10.6229 12.7057 10.8337 12.197 10.8337 11.6666V2.33325C10.8337 1.80282 10.6229 1.29411 10.2479 0.919039C9.8728 0.543966 9.36409 0.333252 8.83366 0.333252Z" fill="white"/>
</svg>
